<?xml version="1.0" encoding="UTF-8"?>
<svg version="1.1" viewBox="0 0 1044 1140.4" xmlns="http://www.w3.org/2000/svg" xmlns:cc="http://creativecommons.org/ns#" xmlns:dc="http://purl.org/dc/elements/1.1/" xmlns:rdf="http://www.w3.org/1999/02/22-rdf-syntax-ns#">
<title>like a sir</title>
<metadata>
<rdf:RDF>
<cc:Work rdf:about="">
<dc:format>image/svg+xml</dc:format>
<dc:type rdf:resource="http://purl.org/dc/dcmitype/StillImage"/>
<dc:title>like a sir</dc:title>
<cc:license rdf:resource="http://creativecommons.org/licenses/publicdomain/"/>
</cc:Work>
<cc:License rdf:about="http://creativecommons.org/licenses/publicdomain/">
<cc:permits rdf:resource="http://creativecommons.org/ns#Reproduction"/>
<cc:permits rdf:resource="http://creativecommons.org/ns#Distribution"/>
<cc:permits rdf:resource="http://creativecommons.org/ns#DerivativeWorks"/>
</cc:License>
</rdf:RDF>
</metadata>
<g transform="translate(445.67 -924.04)">
<g transform="translate(-36.365 1361.7)">
<path d="m-196.22-26.729-165.67-232.01 360.08-137.38 191.85 320.93c79.447 8.2405 96.062 45.041 118.26 79.302l20.889 54.674 12.913 187.55-98.998 134.05 60.612 108.06 62.629 205.74-451.11 1.5858 24.6-69.298 44.201-79.77-46.871-100.18-133.4-101.85-44.461-98.249z" fill="#fff"/>
<path d="m-7.3172 702.32c-49.36-1.0592-112.42-4.0546-113.77-5.4041-0.30979-0.3098 3.0234-0.5633 7.4071-0.5633 9.6465 0 16.352-2.8529 21.951-9.3383 8.001-9.269 12.022-20.693 18.887-53.662 6.8816-33.048 10.301-42.518 23.831-66 16.204-28.123 19.683-42.032 14.637-58.513-5.7573-18.803-19.766-36.503-42.442-53.626-9.1264-6.8914-22.165-15.457-45.138-29.655-43.799-27.068-60.056-38.871-77.394-56.187-17.299-17.278-26.38-30.429-35.419-51.299-13.027-30.076-19.548-60.794-19.548-92.088 0-24.89 3.8428-47.046 17.939-103.42 8.6594-34.635 15.061-63.228 15.061-67.269 0-2.3986-0.46736-2.3126-17.975 3.3092-16.193 5.1994-31.103 10.89-66.025 25.2-15.675 6.423-35.7 14.09-44.5 17.037-18.143 6.0763-40.3 11.825-43.712 11.341-2.9383-0.41677-7.5341-8.882-11.849-21.824-2.4019-7.205-3.2929-11.936-3.6882-19.585-0.48043-9.2956-0.3583-10.237 1.5602-12.024 4.8792-4.5457 52.377-24.344 95.689-39.886 43.789-15.713 82.148-31.423 83.159-34.057 0.24672-0.64294-6.0332-11.019-13.955-23.058-7.9222-12.039-25.571-40.339-39.219-62.889-13.648-22.55-28.178-46.4-32.288-53-20.829-33.444-47.096-70.378-65.074-91.5-4.4471-5.225-8.094-10.207-8.1042-11.07-0.0224-1.8945 26.473-28.091 36.981-36.564 37.224-30.014 88.698-57.682 149.33-80.267 33.008-12.295 79.162-27.019 135.17-43.122 13.75-3.9534 35.634-10.29 48.632-14.082s24.329-6.8944 25.182-6.8944c3.1755 0 20.32 20.401 33.615 40 18.46 27.214 36.054 61.11 63.065 121.5 29.001 64.839 50.969 107.01 64.729 124.26l1.8043 2.2619 13.487-3.5722c15.294-4.0509 41.242-12.645 66.987-22.187 53.573-19.855 86.016-28.595 121.5-32.731 7.15-0.83349 17.162-1.5195 22.25-1.5245l9.25-9e-3v3.1861c0 5.482-3.0352 15.991-7.0222 24.314-7.6073 15.88-19.633 27.145-39.478 36.982-17.346 8.5984-31.856 12.922-72.352 21.557-29.89 6.3739-40.901 9.1149-54.583 13.588-17.424 5.6968-33.345 13.126-31.505 14.702 0.24227 0.20748 7.1905 4.1187 15.44 8.6915 36.417 20.185 55.518 33.893 74.01 53.114 10.719 11.141 16.791 19.092 24.224 31.721 13.081 22.225 21.441 48.661 24.184 76.474 0.53315 5.4066 1.5389 10.516 2.235 11.355 3.8577 4.6482 22.515 14.946 35.846 19.785 10.018 3.6362 24.464 4.5175 35.135 2.1434 7.5616-1.6823 19.865-6.8518 19.865-8.3467 0-0.45008-1.983-4.0049-4.4067-7.8995-7.2497-11.65-8.8718-15.434-8.938-20.855-0.079-6.4384 2.1967-9.9082 7.9342-12.099 5.3381-2.0386 12.762-1.5121 19.461 1.3803 4.2288 1.826 4.6446 2.3442 5.885 7.3359 1.6185 6.5135 2.4531 34.354 1.358 45.304l-0.7933 7.9334-10.033 5.1329c-20.289 10.38-36.642 15.914-51.598 17.461-10.033 1.038-17.871-0.2112-28.055-4.471-10.915-4.5659-9.8141-6.0524-9.8141 13.248 0 64.11-14.504 124.53-40.555 168.93-12.83 21.868-26.242 39.72-43.466 57.854l-10.067 10.599 2.2259 3.6893c7.6519 12.683 15.758 21.846 25.478 28.798 7.3918 5.2875 27.548 15.085 39.885 19.387 4.95 1.7262 18.163 6.0571 29.363 9.6243 23.673 7.5399 37.097 12.733 49.297 19.071 10.061 5.2269 10.39 5.202 21.84-1.6522 14.104-8.4424 25.909-20.743 39.385-41.039 8.0144-12.07 11.229-17.522 30.069-51 17.434-30.978 33.646-52.296 47.51-62.474 23.114-16.967 49.774-16.29 83.81 2.1272l8.2738 4.4772-3.1631 5.9346-3.1632 5.9346h-9.9485-9.9486l0.6903 4.25c0.631 3.8849 2.9677 11.439 4.9915 16.136 0.6116 1.4197 0.464 1.7449-0.5967 1.3143-0.7751-0.31467-9.8083-3.308-20.074-6.6519l-18.664-6.0798-5.1845-5.9846c-2.8515-3.2915-5.7233-5.9846-6.3818-5.9846-2.4507 0-16.89 10.377-23.474 16.871-13.792 13.602-23.012 28.136-42.982 67.753-19.927 39.532-31.526 57.83-44.297 69.877-12.777 12.054-28.482 18.499-45.071 18.499-17.031 0-27.104-4.3255-51.281-22.021-8.25-6.0385-19.05-13-24-15.469-12.337-6.1549-33.5-11.191-33.5-7.9726 0 2.9218 7.1499 24.682 12.309 37.463 2.9974 7.425 11.178 26.1 18.178 41.5 28.921 63.623 38.635 95.864 42.445 140.89 0.55329 6.5373 1.2605 12.141 1.5716 12.452 1.0359 1.0359 13.776 2.0431 34.496 2.7274 21.163 0.6989 51.75-0.7214 92.5-4.2951 23.779-2.0855 66.637-2.3284 78-0.4421 11.379 1.8889 16.757 3.3219 15.815 4.2141-0.7006 0.6638-20.955 2.8546-40.815 4.4149-3.3 0.2593-69.45 0.897-147 1.4172-77.55 0.5203-154.28 1.4228-170.5 2.0058-84.267 3.0276-185.72 4.3166-243 3.0874zm-33.285-11.561c2.6317-0.8766 11.823-5.9391 20.424-11.25l15.639-9.6564 0.69223-17c0.78754-19.341-0.59171-45.09-3.0531-57-1.9006-9.196-4.7025-15.258-9.9616-21.553-7.0023-8.3812-6.553-8.5615-13.362 5.3609-7.5878 15.515-13.627 31.106-19.462 50.237-5.8174 19.076-15.632 56.731-15.632 59.974 0 2.4755 0.0226 2.4811 9.965 2.4811 6.4498 0 11.653-0.5622 14.75-1.5936zm196.63-5.6379c-0.13298-5.8445-0.7051-7.7551-4.3421-14.5-8.265-15.328-12.468-20.47-43.539-53.268-12.244-12.925-24.498-26.2-27.23-29.5-11.715-14.146-20.252-30.404-22.077-42.04-1.1667-7.4401 0.46615-21.108 3.4509-28.887 0.3959-1.0317-1.4409-1.1995-8.8745-0.81065-7.9169 0.4141-10.079 0.17823-13.913-1.5177-7.9548-3.5188-11.733-10.729-13.791-26.319-2.2731-17.216-3.0263-19.777-6.7068-22.811-5.3194-4.3847-17.135-10.813-25.341-13.786-6.189-2.2425-9.2124-2.7216-17.483-2.7705-10.13-0.0599-19.004 1.9336-21.387 4.8045-0.768 0.92539 2.6444 6.7426 13.02 22.195 34.826 51.869 45.86 76.065 53.062 116.36 1.9285 10.79 2.2526 16.14 2.277 37.581 0.0156 13.75-0.31448 26.912-0.73348 29.25l-0.76182 4.25 8.7618 0.034c14.795 0.057 27.947 1.7041 47.593 5.9611 23.51 5.0941 30.881 5.6749 45.569 3.5906 6.2703-0.8898 11.557-1.4611 11.749-1.2696 0.19148 0.1914-2.5658 3.6862-6.1273 7.7662-3.5615 4.0799-6.4859 7.9529-6.4986 8.6067-0.0324 1.6633 18.901 4.24 28.977 3.9437l4.5-0.1324-0.15315-6.7315zm61.835 6.7165c1.0344-1.0344-1.1857-11.014-2.9952-13.464-2.747-3.7194-13.673-8.8427-21.359-10.016-13.021-1.9873-28.973 2.4227-29.639 8.1943-0.26433 2.2903 0.4927 3.2322 5 6.2212 6.0958 4.0423 14.863 7.3124 22.812 8.5084 6.2162 0.9353 25.395 1.3429 26.182 0.5564zm37.48-1.0921c1.6829-0.4514 2.724-2.385 4.7038-8.7363 5.5898-17.932 6.9525-28.463 4.3553-33.657-0.68757-1.375-3.3383-3.6065-5.8905-4.9589l-4.6404-2.459-8.8448 7.9489c-20.16 18.118-21.788 20.473-22.717 32.86-0.45684 6.0898 0.1129 8.3789 2.2251 8.9399 2.5167 0.6685 28.354 0.7209 30.809 0.062zm103.34-1.877c0-0.8162-1.1569-7.0037-2.5708-13.75-7.1344-34.039-17.04-67.055-29.627-98.743-8.2235-20.703-28.414-62.319-29.982-61.796-2.0451 0.68169-10.703 16.225-13.518 24.266l-2.8022 8.0072-0.0682 115-2.6589 8.5682c-1.4624 4.7126-3.5845 10.917-4.7159 13.787-1.1314 2.8703-2.057 5.4271-2.057 5.6817 0 0.2547 19.8 0.463 44 0.463 38.235 0 44-0.1945 44-1.4841zm-134.89-41.016c4.2804-9.1201 6.0091-16.86 6.5891-29.5 1.1957-26.056-8.7763-54.889-24.411-70.581-8.9793-9.0124-22.088-14.964-23.711-10.765-2.1852 5.6546-4.7823 22.585-5.284 34.446-0.96931 22.915 2.8667 43.681 10.949 59.274 5.112 9.862 15.582 20.806 23.76 24.837l5.5 2.7107 1.8954-2.2107c1.0425-1.2158 3.1626-4.9106 4.7114-8.2106zm-63.522-7.75c-7.4714-8.6431-11.426-15.662-13.284-23.576-1.9198-8.1795-2.21-23.579-1.2658-67.174 0.50426-23.284-0.26569-28.966-5.2846-39-2.3284-4.6551-4.3865-7.2304-7.2512-9.0733-4.3332-2.7876-13.951-6.9267-16.095-6.9267-1.4561 0-3.4982 6.1171-6.1753 18.499-2.707 12.52-2.3874 41.431 0.62451 56.501 6.5334 32.69 18.768 57.588 33.538 68.251 3.807 2.7486 13.483 6.6955 16.487 6.7255 2.2991 0.023 2.2554-0.1198-1.2944-4.2263zm102.44-19.25c7.0996-14.163 7.5533-30.67 1.4347-52.194-3.4388-12.097-16.771-38.664-32.02-63.806-7.0053-11.55-14.809-24.476-17.341-28.725-2.532-4.249-4.8822-7.7365-5.2228-7.75-0.87719-0.0348-1.8006 6.0049-2.5314 16.557-1.2897 18.622 3.3696 35.751 19.186 70.536 16.052 35.303 20.423 48.159 22.965 67.549 0.82457 6.2902 1.5126 12.201 1.529 13.135 0.0527 3.003 7.7344-6.7921 12-15.301zm-153.03-36.859c0-0.1975-1.5769-3.7721-3.5042-7.9435-6.4528-13.966-9.9321-30.84-12.516-60.697-3.314-38.301-8.6068-57.478-19.178-69.488l-3.972-4.5124h-24.248c-13.337 0-24.507 0.25856-24.823 0.57458-1.0765 1.0765 4.2545 18.902 7.9031 26.425 6.9162 14.262 21.267 25.759 41.208 33.016l6.3696 2.3178-0.59448 5.0834c-0.39324 3.3625-2.857 9.7149-7.2782 18.765-9.8787 20.222-10.623 17.651 11.317 39.068l18.184 17.75h5.5664c3.0615 0 5.5664-0.1616 5.5664-0.3592zm171.03-61.811c2.9309-17.377-1.2127-24.777-25.162-44.942-6.4646-5.4429-12.011-10.312-12.325-10.82s3.0357-7.9508 7.4436-16.54c4.408-8.5887 8.0145-16.402 8.0145-17.364 0-0.96139-2.0677-3.7542-4.595-6.2062-2.5272-2.452-6.3406-7.0039-8.4742-10.115-4.9557-7.227-8.3074-9.8429-12.611-9.8429-4.3453 0-7.9402 3.46-8.8976 8.5639-1.0418 5.553 0.22196 32.593 1.9839 42.45 6.1894 34.625 21.206 58.319 43.709 68.964 9.2498 4.3758 9.4917 4.2839 10.914-4.1482zm-97.766-26.58c0.31117-4.3999 1.8491-11.857 3.5579-17.25 4.7051-14.851 4.752-15.406 1.4772-17.478-1.5386-0.97338-6.3974-5.4844-10.797-10.025-7.4356-7.6724-8.4113-8.34-13.829-9.4636-3.2061-0.6649-6.1311-0.90724-6.5-0.53854-1.2762 1.2756-1.4237 32.54-0.18332 38.87 1.709 8.7216 5.4567 16.127 9.3921 18.56 2.8862 1.7838 12.131 4.8246 15.228 5.0087 0.67611 0.0402 1.3205-2.9512 1.6552-7.6842zm-73.762-28.579c5.4522-2.9588 7.441-7.3851 7.7511-17.251l0.24892-7.9201-13.5-0.25011c-7.425-0.13757-14.117 0.14746-14.87 0.63338-1.1361 0.73248-0.99019 2.0573 0.85355 7.7501 1.2231 3.7766 3.6098 9.9387 5.3038 13.693l3.0799 6.8269 3.5665-0.65615c1.9616-0.36088 5.3665-1.633 7.5665-2.8269zm101.34-26.112c1.6701-13.59 1.4799-19.012-0.82541-23.53-2.6326-5.1604-3.5995-5.5907-5.6231-2.5023-1.9215 2.9326-6.3706 5.3935-14.391 7.9601-3.025 0.96801-5.8648 2.092-6.3106 2.4976-0.73361 0.66761 23.981 25.017 25.392 25.017 0.3286 0 1.1196-4.2487 1.7578-9.4416zm-138.34-13.601c96.347-7.1216 173.15-47.393 217.34-113.96 12.132-18.277 20.783-36.118 28.85-59.5 11.195-32.447 17.342-81.158 14.471-114.67-0.66975-7.82-1.4676-14.468-1.7729-14.773-0.30536-0.30505-7.4035-0.55463-15.774-0.55463h-15.219l-7.6338 3.7731c-10.448 5.1639-17.878 13.377-27.857 30.791l-7.6996 13.436-6.8523 1.7438c-18.687 4.7553-33.949 6.9942-50.852 7.4595l-17 0.46796-15.687-4.0856c-8.6281-2.2471-16.728-4.0814-18-4.0762-6.2632 0.0254-20.103 11.806-32.295 27.491-3.4203 4.4-11.747 16.1-18.503 26-15.752 23.081-23.042 32.402-31.804 40.665-19.95 18.813-37.908 17.901-59.149-3.0032-12.482-12.284-12.338-11.724-5.014-19.554 6.754-7.22 14.336-11.608 20.059-11.608 4.8162 0 7.5911 3.2226 11.782 13.682 6.267 15.643 7.5174 17.044 9.7908 10.97 13.959-37.295 23.745-58.008 36.505-77.267 22.404-33.815 48.836-52.12 79.316-54.927 12.686-1.1686 29.338 2.3684 50.377 10.7 4.0572 1.6068 7.4693 2.7909 7.5826 2.6314 0.11324-0.15949 2.0806-3.8108 4.3718-8.114 8.5671-16.09 18.876-26.74 32.89-33.978 14.441-7.4585 29.816-10.645 51.529-10.678l12.75-0.01981v-3.9488c0-12.49-5.3782-40.512-11.082-57.74-13.191-39.843-41.936-69.327-81.037-83.122-18.884-6.6619-26.485-7.6893-56.88-7.6884-24.47 7.3e-4 -28.822 0.25254-39.5 2.2851-25.323 4.8203-41.978 9.9265-85.484 26.208-92.685 34.686-169.42 70.58-201.11 94.077-8.355 6.1938-18.169 16.525-23.72 24.97-5.7145 8.6937-16.346 29.758-19.576 38.788-14.786 41.33-17.819 92.337-8.0614 135.57 7.4945 33.206 23.857 66.68 42.331 86.601l6.0279 6.5 0.039-4c0.0214-2.2-0.38648-7.825-0.90647-12.5s-2.1072-22.45-3.5272-39.5c-4.98-59.797-8.3614-83.783-16.175-114.74l-4.4772-17.737 8.3206-10.39c4.5763-5.7142 12.821-16.857 18.321-24.762 18.297-26.297 27.689-38.276 38.394-48.97 15.116-15.1 28.986-23.928 48.293-30.739 16.674-5.8824 25.885-6.8397 68.658-7.1356l4.3438-0.0301-0.64221-5.25c-0.35321-2.8875-1.3733-9.6347-2.2668-14.994-0.89354-5.359-1.3557-10.013-1.027-10.341 1.5585-1.5585 5.2809 1.3411 8.8942 6.9285 4.559 7.0496 14.028 26.172 19.141 38.657 19.544 47.716 23.992 97.013 11.64 129-11.906 30.833-41.243 48.309-78.427 46.721-27.525-1.1756-43.03-9.1631-90.5-46.621-13.489-10.644-32.775-24.099-34.542-24.099-1.0995 0 0.21616 26.153 2.0878 41.5 0.87196 7.15 3.5409 25.375 5.931 40.5 9.4844 60.019 11.258 83.34 7.9459 104.5-0.86081 5.5-1.8116 11.644-2.1128 13.653l-0.54763 3.6529 13.645 9.1324c56.818 38.027 79.926 47.961 124.59 53.562 26.702 3.348 61.191 4.3276 86.5 2.4569zm78.657-166.67c-1.6886-0.32112-3.0847-2.0283-5-6.1138-2.553-5.446-2.6704-6.4549-2.9934-25.724-0.26541-15.835-0.055-20.289 1-21.162 0.73488-0.60829 6.6763-2.9465 13.203-5.196 11.596-3.9966 11.856-4.0386 11.384-1.838-3.9305 18.324-4.0399 19.255-2.9078 24.753 0.62299 3.0258 3.3882 11.696 6.1448 19.268 2.7567 7.5716 5.0121 14.433 5.0121 15.249 0 1.233-1.9745 1.4591-11.75 1.3458-6.4625-0.0749-12.804-0.33667-14.093-0.5817zm44.843-11.604c0-6.1618 2.6916-13.241 6.1367-16.14 4.7192-3.971 12.004-5.6209 27.613-6.2541 15.925-0.64598 16.142-0.54068 11.601 5.6213-10.725 14.552-22.631 21.054-38.601 21.083l-6.75 0.0119v-4.3219zm-8.6849-23.15c1.0482-11.225 4.9639-15.702 17.451-19.949 12.743-4.3343 26.927-5.6262 38.801-3.5341 6.8158 1.201 15.434 4.0199 15.434 5.0484 0 1.372-7.4695 7.226-11.449 8.9729-5.3784 2.3609-13.501 3.6415-28.051 4.4223-12.969 0.69598-17.882 2.2377-26.899 8.441-2.454 1.6884-4.7833 3.0698-5.1762 3.0698s-0.44247-2.9123-0.11008-6.4718zm105.01-1.0481c-5.0534-3.029-10.604-10.353-13.782-18.184-2.072-5.1065-5.2355-18.399-7.0318-29.546l-0.60428-3.75h10.458 10.458l2.5471 10.75c3.0565 12.9 4.6274 24.942 4.6274 35.474 0 8.8347-0.30358 9.0738-6.6725 5.2563zm-122.33-106.09c-11.515-3.0858-29.038-13.171-45.635-26.265l-7.135-5.6291 0.13497-15.5c0.12163-13.968-0.0936-16.102-2.1775-21.591-3.4352-9.0483-11.151-18.227-25.687-30.559-19.032-16.145-25.815-25.274-27.149-36.534l-0.59965-5.0631 5.3743-4.0025c9.761-7.2694 8.9718-7.2904 17.27 0.45939 15.622 14.59 35.029 20.3 68.926 20.282 18.734-0.01 29.771-0.87972 64.069-5.0496 13.69-1.6644 28.362-3.2938 32.603-3.6209l7.7118-0.5947-0.79318 5.8869c-0.43625 3.2378-1.2637 18.262-1.8388 33.387-1.4402 37.879-3.7517 50.825-11.873 66.5-7.2297 13.954-22.011 25.3-37 28.403-7.6367 1.5808-29.553 1.273-36.201-0.50856zm25-18.003c11.581-2.7913 22.585-8.9382 31.227-17.444 10.15-9.9893 13.232-16.333 12.544-25.814-0.47419-6.5262-3.7646-16.055-6.2585-18.125-0.97733-0.81112-1.9941 0.73387-4.4214 6.7185-1.7337 4.2745-3.9938 8.872-5.0224 10.217l-1.8702 2.4448-5.3488-4.1823c-2.9418-2.3002-7.3738-5.8213-9.8488-7.8245-5.7001-4.6135-13.586-8.3603-17.622-8.373-2.0779-7e-3 -5.7362 1.697-10.941 5.0947-4.3006 2.8074-12.571 7.4117-18.378 10.232-12.832 6.231-18.943 11.789-21.532 19.582-2.412 7.2619-1.6087 12.362 2.644 16.788 11.26 11.717 32.984 15.951 54.829 10.686zm-50.081-52.693c6.5564-7.0722 15.402-10.863 40.201-17.23 11.691-3.0011 24.209-6.8656 27.818-8.5878l6.562-3.1312-3-1.0506c-1.7296-0.60569-11.893-1.0501-24-1.0494-18.532 1e-3 -21.94 0.25944-29 2.1984-15.525 4.2638-25.588 10.483-29.559 18.267-2.3637 4.6332-2.456 9.3054-0.32851 16.624l1.6126 5.5471 2.6212-3.3932c1.4416-1.8662 4.6242-5.5538 7.0723-8.1945zm-185.27 164.2c20.041-6.1388 38.336-20.559 52.287-41.214 5.0945-7.5423 12.859-24.58 15.164-33.273 3.0306-11.431 2.977-25.524-0.13444-35.344-2.5185-7.9483-7.5039-16.371-9.9618-16.83-1.0192-0.19032-4.0311 4.4449-9.3958 14.46-4.3427 8.1069-14.871 26.679-23.397 41.27-18.005 30.815-26.672 47.442-32.229 61.828-2.1878 5.6636-3.9778 10.501-3.9778 10.75 0 1.0527 5.2584 0.3088 11.645-1.6473zm-20.982-13.65c19.566-19.332 33.748-42.872 57.289-95.088 10.05-22.292 13.319-30.224 12.708-30.835-0.62959-0.62959-9.2269 8.2385-15.134 15.611-13.369 16.685-24.164 35.36-48.091 83.195-16.807 33.601-17.851 35.868-16.506 35.868 0.48341 0 4.8639-3.9375 9.7345-8.75zm-19.802 2.1278c2.8032-0.56063 3.7892-1.921 9.9657-13.75 3.7701-7.2203 13.177-23.739 20.904-36.708 16.421-27.559 23.57-40.809 29.099-53.928 4.8273-11.454 9.8747-28.063 10.335-34.008 0.30249-3.9086 0.044-4.4997-2.6699-6.1046-5.4975-3.2513-14.368-4.8794-26.584-4.8794h-11.669l-1.0599 2.75c-0.58293 1.5125-3.4023 8.825-6.2653 16.25s-11.771 26.325-19.796 42-18.789 36.879-23.92 47.119l-9.3298 18.619 11.148 10.881c13.103 12.789 13.503 13.026 19.841 11.759zm91.779-8.7904c13.867-6.4566 23.392-22.271 22.087-36.669-0.97068-10.705-1.339-10.511-12.913 6.7917-10.797 16.14-13.976 21.665-16.367 28.443-1.2314 3.4903-1.1991 3.8463 0.34826 3.8375 0.9381-5e-3 4.0184-1.0866 6.8452-2.4028zm-129-47.337c0.61572-0.9625 6.1928-9.6058 12.394-19.207 13.546-20.975 20.917-35.054 24.959-47.673 3.7286-11.64 3.8547-13.767 0.75914-12.806-14.056 4.3636-30.34 18.882-37.5 33.436-4.4954 9.1367-7.2112 18.85-7.2349 25.876-0.0163 4.8342 3.7567 22.124 4.828 22.124 0.37188 0 1.1799-0.7875 1.7956-1.75z" fill="#010101"/>
</g>
</g>
</svg>
