<?xml version="1.0" encoding="UTF-8" standalone="no"?>
<svg
   width="235"
   height="30"
   viewBox="0 0 62.177077 7.9375005"
   version="1.1"
   id="svg8"
   inkscape:version="1.1.1 (3bf5ae0d25, 2021-09-20)"
   sodipodi:docname="logo_fancy.svg"
   inkscape:export-filename="C:\Users\Seez\Documents\Clients\music dot africa\logo white 1.png"
   inkscape:export-xdpi="126.316"
   inkscape:export-ydpi="126.316"
   xmlns:inkscape="http://www.inkscape.org/namespaces/inkscape"
   xmlns:sodipodi="http://sodipodi.sourceforge.net/DTD/sodipodi-0.dtd"
   xmlns:xlink="http://www.w3.org/1999/xlink"
   xmlns="http://www.w3.org/2000/svg"
   xmlns:svg="http://www.w3.org/2000/svg"
   xmlns:rdf="http://www.w3.org/1999/02/22-rdf-syntax-ns#"
   xmlns:cc="http://creativecommons.org/ns#"
   xmlns:dc="http://purl.org/dc/elements/1.1/">
  <defs
     id="defs2">
    <style
       id="style162">.cls-1{fill:#fff;}.cls-2{fill:url(#linear-gradient);}.cls-3{fill:url(#linear-gradient-2);}.cls-4{fill:url(#linear-gradient-3);}.cls-5{font-size:22.37px;}.cls-16,.cls-18,.cls-22,.cls-26,.cls-5,.cls-6,.cls-7{fill:#140077;}.cls-16,.cls-26,.cls-5{font-family:Montserrat-ExtraBold, Montserrat ExtraBold;font-weight:800;}.cls-22,.cls-6{font-size:10.65px;}.cls-18,.cls-22,.cls-6{font-family:Roboto-Regular, Roboto;}.cls-8{fill:url(#linear-gradient-4);}.cls-9{fill:url(#linear-gradient-5);}.cls-10{fill:url(#linear-gradient-6);}.cls-11{fill:url(#linear-gradient-7);}.cls-12{fill:url(#linear-gradient-8);}.cls-13{fill:url(#linear-gradient-9);}.cls-14{fill:url(#linear-gradient-10);}.cls-15{fill:url(#linear-gradient-11);}.cls-16{font-size:26.81px;}.cls-17{letter-spacing:-0.02em;}.cls-18{font-size:10.98px;letter-spacing:0.48em;}.cls-19{letter-spacing:0.45em;}.cls-20{letter-spacing:0.48em;}.cls-21{fill:url(#linear-gradient-12);}.cls-22{letter-spacing:0.48em;}.cls-23{letter-spacing:0.45em;}.cls-24{fill:url(#linear-gradient-13);}.cls-25{fill:url(#linear-gradient-14);}.cls-26{font-size:28.04px;}.cls-27{letter-spacing:-0.08em;}</style>
    <linearGradient
       id="linear-gradient"
       x1="413.98999"
       y1="101.7"
       x2="326.98999"
       y2="195.47"
       gradientUnits="userSpaceOnUse">
      <stop
         offset="0"
         stop-color="#c33764"
         id="stop164" />
      <stop
         offset="1"
         stop-color="#1d2671"
         id="stop166" />
    </linearGradient>
    <linearGradient
       id="linear-gradient-2"
       x1="423.47"
       y1="110.51"
       x2="336.48001"
       y2="204.27"
       xlink:href="#linear-gradient" />
    <linearGradient
       id="linear-gradient-3"
       x1="423.48001"
       y1="110.5"
       x2="336.48001"
       y2="204.27"
       xlink:href="#linear-gradient" />
    <linearGradient
       id="linear-gradient-4"
       x1="183.13"
       y1="315.34"
       x2="104.23"
       y2="401.17999"
       xlink:href="#linear-gradient" />
    <linearGradient
       id="linear-gradient-5"
       x1="187.60001"
       y1="319.45001"
       x2="108.7"
       y2="405.29001"
       xlink:href="#linear-gradient" />
    <linearGradient
       id="linear-gradient-6"
       x1="194.66"
       y1="325.94"
       x2="115.76"
       y2="411.78"
       xlink:href="#linear-gradient" />
    <linearGradient
       id="linear-gradient-7"
       x1="203.28"
       y1="333.85999"
       x2="124.37"
       y2="419.70001"
       xlink:href="#linear-gradient" />
    <linearGradient
       id="linear-gradient-8"
       x1="210.72"
       y1="340.70001"
       x2="131.81"
       y2="426.54001"
       xlink:href="#linear-gradient" />
    <linearGradient
       id="linear-gradient-9"
       x1="637.38"
       y1="324.17001"
       x2="555.19"
       y2="402.92999"
       xlink:href="#linear-gradient" />
    <linearGradient
       id="linear-gradient-10"
       x1="422.44"
       y1="329.45001"
       x2="321.38"
       y2="411.76001"
       xlink:href="#linear-gradient" />
    <linearGradient
       id="linear-gradient-11"
       x1="418.76001"
       y1="324.94"
       x2="317.70001"
       y2="407.25"
       xlink:href="#linear-gradient" />
    <linearGradient
       id="linear-gradient-12"
       x1="609.53998"
       y1="91.339996"
       x2="544.56"
       y2="164.31"
       xlink:href="#linear-gradient" />
    <linearGradient
       id="linear-gradient-13"
       x1="186.38"
       y1="69.400002"
       x2="118.4"
       y2="162.53"
       xlink:href="#linear-gradient" />
    <linearGradient
       id="linear-gradient-14"
       x1="186.35001"
       y1="69.440002"
       x2="118.41"
       y2="162.53"
       xlink:href="#linear-gradient" />
    <style
       id="style483">.cls-1{fill:#180f43;}.cls-2{fill:url(#radial-gradient);}.cls-3{fill:url(#radial-gradient-2);}.cls-4{fill:url(#linear-gradient);}.cls-5{fill:url(#linear-gradient-2);}.cls-6{fill:url(#linear-gradient-3);}.cls-7{fill:url(#linear-gradient-4);}.cls-8{fill:url(#linear-gradient-5);}.cls-9{fill:url(#linear-gradient-6);}.cls-10{fill:url(#linear-gradient-7);}.cls-11{fill:url(#linear-gradient-8);}.cls-12{fill:url(#linear-gradient-9);}.cls-13{fill:url(#linear-gradient-10);}.cls-14{fill:url(#linear-gradient-11);}.cls-15,.cls-48{font-size:9px;font-family:OpenSans;letter-spacing:0.33em;}.cls-15,.cls-18,.cls-41{fill:#fff;}.cls-16{letter-spacing:0.39em;}.cls-17{letter-spacing:0.4em;}.cls-18,.cls-41{font-size:28.17px;font-family:BebasNeueBold;}.cls-18{letter-spacing:0.1em;}.cls-19{letter-spacing:0.02em;}.cls-20,.cls-41{letter-spacing:0.1em;}.cls-21{fill-rule:evenodd;fill:url(#linear-gradient-12);}.cls-22{fill:url(#linear-gradient-13);}.cls-23{fill:url(#linear-gradient-14);}.cls-24{fill:url(#linear-gradient-15);}.cls-25{fill:url(#linear-gradient-16);}.cls-26{fill:url(#linear-gradient-17);}.cls-27{fill:url(#linear-gradient-18);}.cls-28{fill:url(#linear-gradient-19);}.cls-29{fill:url(#linear-gradient-20);}.cls-30{fill:url(#linear-gradient-21);}.cls-31{fill:url(#linear-gradient-22);}.cls-32{fill:url(#linear-gradient-23);}.cls-33{fill:url(#linear-gradient-24);}.cls-34{fill:url(#linear-gradient-25);}.cls-35{fill:url(#linear-gradient-26);}.cls-36{fill:url(#linear-gradient-27);}.cls-37{fill:url(#linear-gradient-28);}.cls-38{fill:url(#linear-gradient-29);}.cls-39{fill:url(#linear-gradient-30);}.cls-40{fill:url(#linear-gradient-31);}.cls-42{fill:url(#linear-gradient-32);}.cls-43{fill:url(#linear-gradient-33);}.cls-44{fill:url(#linear-gradient-34);}.cls-45{fill:url(#linear-gradient-35);}.cls-46{fill:url(#linear-gradient-36);}.cls-47{fill:url(#linear-gradient-37);}.cls-48{fill:#6d6e71;}.cls-49,.cls-51{font-size:24.67px;fill:#231f20;font-family:Montserrat-ExtraBold, Montserrat ExtraBold;font-weight:800;}.cls-49{letter-spacing:0.06em;}.cls-50{letter-spacing:0.02em;}.cls-51{letter-spacing:0.1em;}.cls-52{fill:url(#linear-gradient-38);}.cls-53{fill:url(#linear-gradient-39);}.cls-54{fill:url(#linear-gradient-40);}</style>
    <radialGradient
       id="radial-gradient"
       cx="132.32001"
       cy="435.04001"
       r="248.57001"
       gradientTransform="matrix(0.63,0,0,0.68,292.3,80.69)"
       gradientUnits="userSpaceOnUse">
      <stop
         offset="0"
         stop-color="#fff"
         stop-opacity="0"
         id="stop485" />
      <stop
         offset="0.13"
         stop-color="#fff"
         stop-opacity="0.02"
         id="stop487" />
      <stop
         offset="0.26"
         stop-color="#fdfdfd"
         stop-opacity="0.07"
         id="stop489" />
      <stop
         offset="0.39"
         stop-color="#fbfbfb"
         stop-opacity="0.16"
         id="stop491" />
      <stop
         offset="0.53"
         stop-color="#f8f8f8"
         stop-opacity="0.29"
         id="stop493" />
      <stop
         offset="0.66"
         stop-color="#f4f4f5"
         stop-opacity="0.45"
         id="stop495" />
      <stop
         offset="0.8"
         stop-color="#efeff0"
         stop-opacity="0.65"
         id="stop497" />
      <stop
         offset="0.94"
         stop-color="#e9eaeb"
         stop-opacity="0.88"
         id="stop499" />
      <stop
         offset="1"
         stop-color="#e6e7e8"
         id="stop501" />
    </radialGradient>
    <radialGradient
       id="radial-gradient-2"
       cx="-267.67999"
       cy="65.489998"
       r="269.10001"
       gradientTransform="matrix(0.63,0,0,0.68,292.3,80.69)"
       gradientUnits="userSpaceOnUse">
      <stop
         offset="0"
         stop-color="#fff"
         stop-opacity="0"
         id="stop504" />
      <stop
         offset="0.1"
         stop-color="#fefefe"
         stop-opacity="0.03"
         id="stop506" />
      <stop
         offset="0.23"
         stop-color="#fdfdfd"
         stop-opacity="0.1"
         id="stop508" />
      <stop
         offset="0.38"
         stop-color="#f9fafa"
         stop-opacity="0.22"
         id="stop510" />
      <stop
         offset="0.55"
         stop-color="#f5f6f6"
         stop-opacity="0.39"
         id="stop512" />
      <stop
         offset="0.73"
         stop-color="#f0f0f1"
         stop-opacity="0.61"
         id="stop514" />
      <stop
         offset="0.91"
         stop-color="#e9eaeb"
         stop-opacity="0.87"
         id="stop516" />
      <stop
         offset="1"
         stop-color="#e6e7e8"
         id="stop518" />
    </radialGradient>
    <linearGradient
       id="linear-gradient-1"
       x1="71.309998"
       y1="357.32001"
       x2="172.78999"
       y2="357.32001"
       gradientUnits="userSpaceOnUse">
      <stop
         offset="0"
         stop-color="#2154c4"
         id="stop521" />
      <stop
         offset="0.49"
         stop-color="#16a8d1"
         id="stop523" />
      <stop
         offset="1"
         stop-color="#22e2a7"
         id="stop525" />
    </linearGradient>
    <linearGradient
       id="linear-gradient-2-8"
       x1="71.300003"
       y1="357.14999"
       x2="172.8"
       y2="357.14999"
       xlink:href="#linear-gradient-1"
       gradientTransform="matrix(0.26458334,0,0,0.26458334,-221.20061,166.15832)" />
    <linearGradient
       id="linear-gradient-3-8"
       x1="71.32"
       y1="361"
       x2="172.8"
       y2="361"
       xlink:href="#linear-gradient-1"
       gradientTransform="matrix(0.26458334,0,0,0.26458334,-221.20061,166.15832)" />
    <linearGradient
       id="linear-gradient-4-4"
       x1="71.290001"
       y1="357.14999"
       x2="172.81"
       y2="357.14999"
       xlink:href="#linear-gradient-1"
       gradientTransform="matrix(0.26458334,0,0,0.26458334,-221.20061,166.15832)" />
    <linearGradient
       id="linear-gradient-5-0"
       x1="71.309998"
       y1="357.14999"
       x2="172.78"
       y2="357.14999"
       xlink:href="#linear-gradient-1"
       gradientTransform="matrix(0.26458334,0,0,0.26458334,-221.20061,166.15832)" />
    <linearGradient
       id="linear-gradient-6-4"
       x1="71.32"
       y1="357.14999"
       x2="172.8"
       y2="357.14999"
       xlink:href="#linear-gradient-1"
       gradientTransform="matrix(0.26458334,0,0,0.26458334,-221.20061,166.15832)" />
    <linearGradient
       id="linear-gradient-7-1"
       x1="71.300003"
       y1="357.14999"
       x2="172.81"
       y2="357.14999"
       xlink:href="#linear-gradient-1"
       gradientTransform="matrix(0.26458334,0,0,0.26458334,-221.20061,166.15832)" />
    <linearGradient
       id="linear-gradient-9-8"
       x1="71.290001"
       y1="358"
       x2="172.83"
       y2="358"
       xlink:href="#linear-gradient-1"
       gradientTransform="matrix(0.26458334,0,0,0.26458334,-221.20061,166.15832)" />
    <linearGradient
       id="linear-gradient-10-8"
       x1="71.269997"
       y1="358"
       x2="172.81"
       y2="358"
       xlink:href="#linear-gradient-1"
       gradientTransform="matrix(0.26458334,0,0,0.26458334,-221.20061,166.15832)" />
    <linearGradient
       id="linear-gradient-11-7"
       x1="72.470001"
       y1="336.25"
       x2="171.69"
       y2="336.25"
       xlink:href="#linear-gradient-1"
       gradientTransform="matrix(0.26458334,0,0,0.26458334,-221.20061,166.15832)" />
    <linearGradient
       id="linear-gradient-12-7"
       x1="321.32999"
       y1="107.33"
       x2="430.81"
       y2="107.33"
       gradientUnits="userSpaceOnUse">
      <stop
         offset="0"
         stop-color="#fc1b7c"
         id="stop538" />
      <stop
         offset="0.49"
         stop-color="#714cf4"
         id="stop540" />
      <stop
         offset="1"
         stop-color="#0084f3"
         id="stop542" />
    </linearGradient>
    <linearGradient
       id="linear-gradient-13-0"
       x1="321.32999"
       y1="114.78"
       x2="430.81"
       y2="114.78"
       xlink:href="#linear-gradient-12-7"
       gradientTransform="matrix(0.26458334,0,0,0.26458334,-221.20061,166.15832)" />
    <linearGradient
       id="linear-gradient-14-9"
       x1="321.32999"
       y1="122.23"
       x2="430.81"
       y2="122.23"
       xlink:href="#linear-gradient-12-7"
       gradientTransform="matrix(0.26458334,0,0,0.26458334,-221.20061,166.15832)" />
    <linearGradient
       id="linear-gradient-15"
       x1="321.32999"
       y1="129.67999"
       x2="430.81"
       y2="129.67999"
       xlink:href="#linear-gradient-12-7"
       gradientTransform="matrix(0.26458334,0,0,0.26458334,-221.20061,166.15832)" />
    <linearGradient
       id="linear-gradient-16"
       x1="321.34"
       y1="114.78"
       x2="430.79999"
       y2="114.78"
       xlink:href="#linear-gradient-12-7"
       gradientTransform="matrix(0.26458334,0,0,0.26458334,-221.20061,166.15832)" />
    <linearGradient
       id="linear-gradient-17"
       x1="321.34"
       y1="122.23"
       x2="430.79999"
       y2="122.23"
       xlink:href="#linear-gradient-12-7" />
    <linearGradient
       id="linear-gradient-18"
       x1="321.34"
       y1="129.67999"
       x2="430.79999"
       y2="129.67999"
       xlink:href="#linear-gradient-12-7" />
    <linearGradient
       id="linear-gradient-19"
       x1="321.32999"
       y1="92.419998"
       x2="430.79999"
       y2="92.419998"
       xlink:href="#linear-gradient-12-7"
       gradientTransform="matrix(0.26458334,0,0,0.26458334,-221.20061,166.15832)" />
    <linearGradient
       id="linear-gradient-20"
       x1="321.32999"
       y1="99.879997"
       x2="430.79999"
       y2="99.879997"
       xlink:href="#linear-gradient-12-7"
       gradientTransform="matrix(0.26458334,0,0,0.26458334,-221.20061,166.15832)" />
    <linearGradient
       id="linear-gradient-21"
       x1="321.32999"
       y1="107.33"
       x2="430.79999"
       y2="107.33"
       xlink:href="#linear-gradient-12-7"
       gradientTransform="matrix(0.26458334,0,0,0.26458334,-221.20061,166.15832)" />
    <linearGradient
       id="linear-gradient-22"
       x1="321.32999"
       y1="114.78"
       x2="430.79999"
       y2="114.78"
       xlink:href="#linear-gradient-12-7"
       gradientTransform="matrix(0.26458334,0,0,0.26458334,-221.20061,166.15832)" />
    <linearGradient
       id="linear-gradient-23"
       x1="321.32999"
       y1="122.23"
       x2="430.79999"
       y2="122.23"
       xlink:href="#linear-gradient-12-7"
       gradientTransform="matrix(0.26458334,0,0,0.26458334,-221.20061,166.15832)" />
    <linearGradient
       id="linear-gradient-24"
       x1="321.32999"
       y1="129.67999"
       x2="430.79999"
       y2="129.67999"
       xlink:href="#linear-gradient-12-7"
       gradientTransform="matrix(0.26458334,0,0,0.26458334,-221.20061,166.15832)" />
    <linearGradient
       id="linear-gradient-27"
       x1="321.32999"
       y1="107.33"
       x2="430.81"
       y2="107.33"
       xlink:href="#linear-gradient-12-7"
       gradientTransform="matrix(0.26458334,0,0,0.26458334,-221.20061,166.15832)" />
    <linearGradient
       id="linear-gradient-31"
       x1="321.32999"
       y1="96.769997"
       x2="430.79999"
       y2="96.769997"
       xlink:href="#linear-gradient-12-7"
       gradientTransform="matrix(0.26458334,0,0,0.26458334,-221.20061,166.15832)" />
    <linearGradient
       id="linear-gradient-32"
       x1="317.16"
       y1="350.89001"
       x2="388.10999"
       y2="350.89001"
       gradientUnits="userSpaceOnUse">
      <stop
         offset="0"
         stop-color="#18eff2"
         id="stop564" />
      <stop
         offset="0.5"
         stop-color="#109ef5"
         id="stop566" />
      <stop
         offset="1"
         stop-color="#144ccb"
         id="stop568" />
    </linearGradient>
    <linearGradient
       id="linear-gradient-33"
       x1="317.16"
       y1="327.59"
       x2="388.10999"
       y2="327.59"
       xlink:href="#linear-gradient-32"
       gradientTransform="matrix(0.26458334,0,0,0.26458334,-221.20061,166.15832)" />
    <linearGradient
       id="linear-gradient-34"
       x1="444.23999"
       y1="164.82001"
       x2="524.73999"
       y2="164.82001"
       gradientTransform="matrix(0.16849732,-0.16826221,0.16826221,0.16849732,-220.8249,311.44103)"
       xlink:href="#linear-gradient-32" />
    <linearGradient
       id="linear-gradient-35"
       x1="442.69"
       y1="162.77"
       x2="523.65002"
       y2="162.77"
       gradientTransform="matrix(0.16849732,-0.16826221,0.16826221,0.16849732,-220.8249,311.44103)"
       xlink:href="#linear-gradient-32" />
    <linearGradient
       id="linear-gradient-36"
       x1="445.85001"
       y1="174.97"
       x2="526.92999"
       y2="174.97"
       gradientTransform="matrix(0.16849732,-0.16826221,0.16826221,0.16849732,-220.8249,311.44103)"
       xlink:href="#linear-gradient-32" />
    <linearGradient
       id="linear-gradient-37"
       x1="447.23001"
       y1="183.39"
       x2="529.35999"
       y2="183.39"
       gradientTransform="matrix(0.16849732,-0.16826221,0.16826221,0.16849732,-220.8249,311.44103)"
       xlink:href="#linear-gradient-32" />
    <linearGradient
       id="linear-gradient-38"
       x1="52.279999"
       y1="108.99"
       x2="197.25"
       y2="108.99"
       gradientUnits="userSpaceOnUse">
      <stop
         offset="0"
         stop-color="#f23514"
         id="stop576" />
      <stop
         offset="0.49"
         stop-color="#f87458"
         id="stop578" />
      <stop
         offset="1"
         stop-color="#f6e813"
         id="stop580" />
    </linearGradient>
    <linearGradient
       id="linear-gradient-39"
       x1="52.279999"
       y1="108.99"
       x2="197.25"
       y2="108.99"
       xlink:href="#linear-gradient-38"
       gradientTransform="matrix(0.26458334,0,0,0.26458334,-207.0454,125.01561)" />
    <linearGradient
       id="linear-gradient-40"
       x1="52.279999"
       y1="96.57"
       x2="197.25"
       y2="96.57"
       xlink:href="#linear-gradient-38"
       gradientTransform="matrix(0.26458334,0,0,0.26458334,-207.0454,125.01561)" />
  </defs>
  <sodipodi:namedview
     id="base"
     pagecolor="#ffffff"
     bordercolor="#666666"
     borderopacity="1.0"
     inkscape:pageopacity="0.0"
     inkscape:pageshadow="2"
     inkscape:zoom="1.4142137"
     inkscape:cx="-48.790363"
     inkscape:cy="31.112695"
     inkscape:document-units="px"
     inkscape:current-layer="layer1"
     inkscape:document-rotation="0"
     showgrid="false"
     units="px"
     inkscape:window-width="1605"
     inkscape:window-height="856"
     inkscape:window-x="183"
     inkscape:window-y="105"
     inkscape:window-maximized="0"
     inkscape:pagecheckerboard="0" />
  <metadata
     id="metadata5">
    <rdf:RDF>
      <cc:Work
         rdf:about="">
        <dc:format>image/svg+xml</dc:format>
        <dc:type
           rdf:resource="http://purl.org/dc/dcmitype/StillImage" />
      </cc:Work>
    </rdf:RDF>
  </metadata>
  <g
     inkscape:label="Layer 1"
     inkscape:groupmode="layer"
     id="layer1">
    <path
       id="path21506"
       style="font-weight:bold;font-size:10.5833px;line-height:1.25;font-family:Georgia;-inkscape-font-specification:'Georgia, Bold';letter-spacing:0px;fill:#d40000;stroke-width:0.218143"
       d="m 26.479628,2.1303002 q -0.191727,0.029822 -0.374932,0.1448602 -0.178947,0.1150362 -0.298243,0.3578907 -0.366411,0.775429 -0.754126,1.6531126 -0.387714,0.8734225 -0.860641,1.891706 Q 23.927528,6.7487901 23.680414,7.089638 23.433299,7.4304866 23.216009,7.6136916 23.0115,7.7841164 22.811252,7.860807 22.611003,7.9375 22.406495,7.9375 q -0.404758,0 -0.656134,-0.2258117 -0.247114,-0.2258115 -0.247114,-0.5070116 0,-0.1192964 0.02557,-0.2215507 0.02982,-0.1022548 0.119297,-0.2130306 0.06817,-0.093733 0.208769,-0.1619021 0.144861,-0.063913 0.323805,-0.063913 0.238594,0 0.455885,0.1661639 0.217289,0.1661629 0.451622,0.4601441 0.1406,-0.1405993 0.345108,-0.4217994 Q 23.642072,6.4718493 23.740066,6.177868 23.233054,5.1127186 22.84108,4.3330287 22.449104,3.5490786 21.963396,2.5861827 21.856881,2.381674 21.677936,2.2708978 21.498991,2.1558624 21.298743,2.1302986 v -0.311024 h 2.607486 v 0.311024 q -0.144859,0.00429 -0.336586,0.063905 -0.187467,0.059651 -0.187467,0.153382 0,0.034084 0.01278,0.076693 0.01278,0.038347 0.04686,0.1150364 0.144861,0.2982421 0.409018,0.8308167 0.268418,0.5283147 0.622047,1.2398351 0.264157,-0.6050052 0.447363,-1.0395865 0.187467,-0.4388421 0.362152,-0.8606415 0.04261,-0.1065152 0.04686,-0.1661629 0.0085,-0.063906 0.0085,-0.085212 0,-0.076693 -0.07669,-0.1320783 -0.07243,-0.059651 -0.174685,-0.1022548 -0.106515,-0.042609 -0.204509,-0.063906 -0.098,-0.021304 -0.161903,-0.029822 V 1.8192803 h 1.759628 z M 19.46242,6.1821306 q -0.592223,0 -1.048107,-0.170424 Q 17.962689,5.8370218 17.668708,5.5387797 17.374726,5.2362776 17.229867,4.8229992 17.085005,4.4097208 17.085005,3.9240128 q 0,-0.443103 0.174686,-0.8435986 0.178944,-0.4004965 0.481447,-0.7029995 0.311024,-0.311024 0.771169,-0.4942299 0.464405,-0.1874659 1.022544,-0.1874659 0.78395,0 1.239834,0.2982421 0.455884,0.2939813 0.455884,0.796732 0,0.3067631 -0.161903,0.4942299 -0.161902,0.1874659 -0.558138,0.1874659 -0.319545,0 -0.536836,-0.1533811 -0.21303,-0.1533819 -0.21303,-0.4004964 0,-0.2087697 0.06817,-0.4132785 0.06817,-0.2045086 0.08096,-0.311024 -0.04686,-0.076693 -0.119297,-0.1150362 -0.07243,-0.042609 -0.225812,-0.042609 -0.191726,0 -0.349368,0.089472 -0.157642,0.089472 -0.293983,0.3152848 -0.132078,0.2130297 -0.213029,0.5709204 -0.07669,0.3578899 -0.07669,0.8606407 0,0.7583871 0.35363,1.2227922 0.35789,0.4644084 0.852119,0.4644084 0.472927,0 0.749866,-0.2087688 0.2812,-0.2130305 0.49849,-0.6007451 l 0.319545,0.2215516 q -0.132085,0.2598965 -0.31529,0.4771871 -0.183206,0.2130297 -0.438842,0.3791935 -0.268419,0.1746848 -0.545357,0.2641574 -0.276939,0.089472 -0.643351,0.089472 z M 16.633383,6.0457915 H 14.0685 v -0.311024 q 0.08095,-0.00852 0.195988,-0.021304 0.115037,-0.012779 0.174685,-0.042609 0.08948,-0.046863 0.127819,-0.1363392 0.03835,-0.089473 0.03835,-0.2641572 v -1.993962 q 0,-0.4345812 -0.161903,-0.651871 -0.157642,-0.2215515 -0.468666,-0.2215515 -0.170424,0 -0.319545,0.051126 -0.144861,0.051126 -0.28546,0.1491209 -0.123557,0.085212 -0.200248,0.1746849 -0.07243,0.089472 -0.123558,0.157642 v 2.2879425 q 0,0.1491211 0.04261,0.2513754 0.04261,0.097994 0.1406,0.149121 0.06817,0.038347 0.170424,0.068168 0.102257,0.029822 0.200248,0.042609 v 0.3110242 h -2.590447 v -0.311024 q 0.106515,-0.00852 0.213029,-0.021304 0.110777,-0.017041 0.187467,-0.042609 0.136339,-0.046863 0.187468,-0.144861 0.05113,-0.097994 0.05113,-0.2556355 v -2.47967 q 0,-0.1320783 -0.06817,-0.2598964 -0.06817,-0.1278181 -0.178948,-0.2087697 -0.07669,-0.051126 -0.195988,-0.085212 -0.115036,-0.034084 -0.255636,-0.046863 v -0.311024 l 2.032306,-0.1107754 0.06391,0.063906 v 0.6177871 h 0.01704 q 0.119297,-0.1065153 0.28972,-0.2556363 0.170425,-0.1491211 0.315284,-0.2428544 0.157642,-0.1022547 0.413279,-0.174684 0.255636,-0.072431 0.545357,-0.072431 0.694478,0 1.039586,0.3962355 0.349369,0.3919755 0.349369,1.0438474 v 2.0876938 q 0,0.157642 0.04687,0.2513754 0.04686,0.093733 0.174684,0.1491211 0.06817,0.029821 0.166164,0.059651 0.102257,0.029822 0.230073,0.042609 z m -5.95206,-0.089473 q -0.187466,0.080956 -0.443102,0.1491211 -0.2556368,0.068168 -0.541097,0.068168 -0.5240537,0 -0.7711682,-0.153382 Q 8.6788413,5.862584 8.589368,5.5728628 H 8.563801 q -0.1448609,0.144861 -0.2812,0.2471154 -0.1320783,0.1022543 -0.2854602,0.174684 -0.2002478,0.093733 -0.3877146,0.1363391 -0.1832058,0.046863 -0.5155327,0.046863 -0.494229,0 -0.8435986,-0.2897204 -0.349369,-0.2939819 -0.349369,-0.775429 0,-0.2769392 0.076693,-0.4686661 Q 6.0543118,4.4480616 6.1949095,4.2989406 6.3227276,4.1626015 6.4888906,4.0731289 6.6593154,3.9836556 6.8595632,3.9069651 7.2430168,3.7663651 7.7798524,3.6172449 8.316688,3.4638628 8.5638033,3.3445657 V 2.9355483 q 0,-0.1065145 -0.017042,-0.2811994 Q 8.5297194,2.4796641 8.4743309,2.3603678 8.4146798,2.2240287 8.2868642,2.1302953 8.159046,2.0365619 7.9502764,2.0365619 q -0.1874659,0 -0.3152842,0.055388 -0.1235572,0.051126 -0.2002478,0.1065153 0.01278,0.085211 0.072431,0.2598963 0.059651,0.1746849 0.059651,0.3365878 0,0.072431 -0.038347,0.1832059 -0.038347,0.1065144 -0.1107754,0.1704239 -0.097994,0.085211 -0.2215506,0.1320783 -0.1192972,0.046863 -0.3706726,0.046863 -0.3578907,0 -0.5410966,-0.1704239 -0.1832057,-0.1746849 -0.1832057,-0.451624 0,-0.2385935 0.1874667,-0.4260594 0.1917268,-0.1917269 0.4644051,-0.315285 0.2684182,-0.1278173 0.6177871,-0.1959868 0.3493697,-0.072431 0.6476109,-0.072431 0.4132784,0 0.7583872,0.051126 0.3451087,0.046863 0.622048,0.2002486 0.2641564,0.1491211 0.4175383,0.4345813 0.1576421,0.2811993 0.1576421,0.7370834 0,0.4814479 -0.021304,1.1418408 -0.017043,0.6603928 -0.017043,0.8691624 0,0.1917268 0.055388,0.302503 0.059651,0.1107754 0.1789451,0.1661631 0.07243,0.034084 0.225811,0.042609 0.157642,0.00429 0.285461,0.00429 z M 8.563805,3.7365461 Q 8.3252114,3.8175017 8.0908781,3.9240128 7.8565455,4.0262673 7.7074244,4.1413035 7.5497824,4.2605999 7.4603091,4.4480666 q -0.089472,0.1832058 -0.089472,0.4345811 0,0.332327 0.149121,0.481448 0.1533819,0.1491202 0.3749326,0.1491202 0.2343335,0 0.3834545,-0.093733 0.1533811,-0.097994 0.2684174,-0.2385936 z M 5.4322639,1.6147675 H 5.1041979 Q 4.9806407,1.2611377 4.6653557,0.86490234 4.3543317,0.46440578 4.0731325,0.42606009 3.9453144,0.40901812 3.7322846,0.39623869 3.5192549,0.38345926 3.3403091,0.38345926 H 2.398717 V 2.7566133 h 0.6007443 q 0.2556363,0 0.4431022,-0.055388 Q 3.6300302,2.6415737 3.7748904,2.4924551 3.8814056,2.3859398 3.9793991,2.1388253 4.0816535,1.8874499 4.1029563,1.7085051 H 4.4267622 V 4.2520829 H 4.1029563 Q 4.0859144,4.0603562 3.9708782,3.7876779 3.8558418,3.5107386 3.7748904,3.4212661 3.6513331,3.284927 3.4596063,3.2210175 3.2678795,3.1528496 2.9994613,3.1528496 H 2.398717 v 2.0024822 q 0,0.1533812 0.055388,0.2641573 0.059651,0.1065145 0.2215508,0.1746841 0.093733,0.038347 0.2556363,0.072431 0.1661638,0.029821 0.328066,0.046863 V 6.0457939 H 0 V 5.7134671 Q 0.12355725,5.7006876 0.32806597,5.6793831 0.5325747,5.6538159 0.61352617,5.6197321 0.76690812,5.5600809 0.82655588,5.453569 0.88620693,5.3470538 0.88620693,5.1808907 V 0.91602984 q 0,-0.1448601 -0.0553885,-0.2513755 Q 0.7796925,0.55387908 0.61352782,0.48144859 0.49423148,0.43032265 0.29824375,0.38771522 0.10225601,0.34510615 1.648958e-6,0.33232672 V -1.6e-7 H 5.4322664 Z" />
    <path
       id="path27931"
       style="font-weight:600;font-size:10.5833px;line-height:1.25;font-family:Poppins;-inkscape-font-specification:'Poppins, Semi-Bold';letter-spacing:0px;fill:#6b7280;stroke-width:0.174445"
       d="M 60.907129,5.8148956 59.595309,4.1681427 V 5.8148956 H 58.618422 V 0.65134755 h 0.976887 V 3.588988 l 1.297864,-1.6397751 h 1.269954 l -1.702575,1.9398191 1.716531,1.9258636 z m -5.023982,0.062795 q -0.558221,0 -1.004798,-0.2442207 -0.446578,-0.2512005 -0.704755,-0.704755 -0.2512,-0.4535545 -0.2512,-1.0466648 0,-0.5931103 0.258178,-1.0466658 0.265155,-0.4535545 0.718709,-0.6977762 0.453556,-0.2511995 1.011777,-0.2511995 0.558222,0 1.011776,0.2511995 0.453556,0.2442217 0.711733,0.6977762 0.265155,0.4535555 0.265155,1.0466658 0,0.5931103 -0.272133,1.0466648 -0.265155,0.4535545 -0.725688,0.704755 -0.453555,0.2442207 -1.018754,0.2442207 z m 0,-0.8512866 q 0.265155,0 0.495421,-0.1256003 0.237244,-0.132577 0.3768,-0.3907543 0.139555,-0.2581773 0.139555,-0.6279993 0,-0.5512436 -0.293065,-0.8443108 -0.28609,-0.3000431 -0.704755,-0.3000431 -0.418667,0 -0.704755,0.3000431 -0.279111,0.2930672 -0.279111,0.8443108 0,0.5512436 0.272134,0.8512876 0.279111,0.2930663 0.697776,0.2930663 z M 51.43134,5.8776908 q -0.558222,0 -1.004799,-0.2442207 -0.446577,-0.2512005 -0.704754,-0.704755 -0.2512,-0.4535545 -0.2512,-1.0466648 0,-0.5931103 0.258177,-1.0466658 0.265156,-0.4535545 0.71871,-0.6977762 0.453556,-0.2511995 1.011777,-0.2511995 0.558221,0 1.011776,0.2511995 0.453555,0.2442217 0.711732,0.6977762 0.265156,0.4535555 0.265156,1.0466658 0,0.5931103 -0.272133,1.0466648 -0.265155,0.4535545 -0.725689,0.704755 -0.453554,0.2442207 -1.018753,0.2442207 z m 0,-0.8512866 q 0.265155,0 0.495422,-0.1256003 0.237244,-0.132577 0.376799,-0.3907543 0.139556,-0.2581773 0.139556,-0.6279993 0,-0.5512436 -0.293068,-0.8443108 -0.286087,-0.3000431 -0.704754,-0.3000431 -0.418666,0 -0.704754,0.3000431 -0.27911,0.2930672 -0.27911,0.8443108 0,0.5512436 0.272132,0.8512876 0.27911,0.2930663 0.697777,0.2930663 z M 45.960774,2.5144071 q 0.1884,-0.2791107 0.516354,-0.4535545 0.334934,-0.1744438 0.760578,-0.1744438 0.495421,0 0.893154,0.2442207 0.404711,0.2442227 0.634977,0.6977772 0.237244,0.4465777 0.237244,1.039688 0,0.5931103 -0.237244,1.0536426 -0.230266,0.4535555 -0.634977,0.704755 -0.397733,0.2511985 -0.893154,0.2511985 -0.432622,0 -0.760578,-0.167466 Q 46.156152,5.535781 45.960774,5.2636481 V 5.8148917 H 44.983887 V 0.6513436 h 0.976887 z m 2.044486,1.3536876 q 0,-0.3488886 -0.146533,-0.6000881 -0.139555,-0.2581773 -0.3768,-0.3907554 -0.230266,-0.132577 -0.502399,-0.132577 -0.265155,0 -0.5024,0.1395548 -0.230266,0.1325781 -0.376798,0.3907554 -0.139556,0.2581773 -0.139556,0.6070659 0,0.3488886 0.139556,0.6070659 0.146532,0.2581773 0.376798,0.3977321 0.237245,0.1325781 0.5024,0.1325781 0.272133,0 0.502399,-0.1395549 0.237245,-0.1395558 0.3768,-0.3977341 0.146533,-0.2581773 0.146533,-0.6140427 z m -3.733097,-0.069778 q 0,0.2093327 -0.02791,0.3767988 h -2.825996 q 0.03489,0.4186665 0.293065,0.6559104 0.258178,0.2372449 0.634977,0.2372449 0.544266,0 0.774533,-0.467511 h 1.053643 q -0.167467,0.5582223 -0.641955,0.9210655 -0.474488,0.3558654 -1.165287,0.3558654 -0.558222,0 -1.004799,-0.2442207 -0.439599,-0.2512005 -0.690799,-0.704755 -0.244221,-0.4535545 -0.244221,-1.0466648 0,-0.6000881 0.244221,-1.0536436 0.244222,-0.4535545 0.683822,-0.6977772 0.439599,-0.2442207 1.011776,-0.2442207 0.551243,0 0.983865,0.2372439 0.439599,0.2372439 0.676843,0.6768428 0.244222,0.4326221 0.244222,0.9978213 z M 43.260387,3.5192101 q -0.007,-0.3767998 -0.272133,-0.6000882 -0.265155,-0.2302661 -0.648932,-0.2302661 -0.362844,0 -0.614044,0.2232884 -0.244222,0.2163105 -0.300044,0.6070659 z M 39.108625,2.7516549 v 1.8700423 q 0,0.1953782 0.09071,0.2860885 0.09769,0.083734 0.320978,0.083734 h 0.453555 v 0.8233764 h -0.614045 q -1.235064,0 -1.235064,-1.2001762 v -1.863065 h -0.460533 v -0.802442 h 0.460533 V 0.99325835 H 39.10862 V 1.9492129 h 0.865244 v 0.802442 z m -3.872651,3.1260399 q -0.558221,0 -1.004799,-0.2442208 -0.446577,-0.2512005 -0.704754,-0.704755 -0.251199,-0.4535544 -0.251199,-1.0466648 0,-0.5931103 0.258177,-1.0466658 0.265155,-0.4535544 0.718709,-0.6977762 0.453556,-0.2511995 1.011777,-0.2511995 0.558222,0 1.011776,0.2511995 0.453555,0.2442218 0.711733,0.6977762 0.265155,0.4535555 0.265155,1.0466658 0,0.5931104 -0.272133,1.0466648 -0.265155,0.4535545 -0.725688,0.704755 -0.453555,0.2442208 -1.018754,0.2442208 z m 0,-0.8512867 q 0.265155,0 0.495421,-0.1256002 0.237245,-0.1325771 0.3768,-0.3907544 0.139556,-0.2581773 0.139556,-0.6279993 0,-0.5512435 -0.293067,-0.8443108 -0.286088,-0.300043 -0.704754,-0.300043 -0.418667,0 -0.704754,0.300043 -0.279111,0.2930673 -0.279111,0.8443108 0,0.5512436 0.272132,0.8512877 0.279111,0.2930662 0.697777,0.2930662 z M 31.049318,1.8933895 q 0.690799,0 1.116444,0.4395999 0.425643,0.4326221 0.425643,1.2141318 V 5.8148956 H 31.614517 V 3.6796983 q 0,-0.4605323 -0.230265,-0.704754 -0.230267,-0.2511995 -0.627999,-0.2511995 -0.404711,0 -0.641955,0.2511995 -0.230266,0.2442217 -0.230266,0.704754 V 5.8148956 H 28.907144 V 1.9492129 h 0.976888 V 2.4306775 Q 30.079409,2.179479 30.379453,2.0399232 30.686475,1.8933895 31.049318,1.8933895 Z" />
  </g>
</svg>
