<?xml version="1.0" encoding="UTF-8"?>
<svg width="300" height="30" version="1.1" viewBox="0 0 79.375 7.9375" xmlns="http://www.w3.org/2000/svg" xmlns:cc="http://creativecommons.org/ns#" xmlns:dc="http://purl.org/dc/elements/1.1/" xmlns:rdf="http://www.w3.org/1999/02/22-rdf-syntax-ns#" xmlns:xlink="http://www.w3.org/1999/xlink">
<defs>
<style>.cls-1{fill:#fff;}.cls-2{fill:url(#a);}.cls-3{fill:url(#l);}.cls-4{fill:url(#k);}.cls-5{font-size:22.37px;}.cls-16,.cls-18,.cls-22,.cls-26,.cls-5,.cls-6,.cls-7{fill:#140077;}.cls-16,.cls-26,.cls-5{font-family:Montserrat-ExtraBold, Montserrat ExtraBold;font-weight:800;}.cls-22,.cls-6{font-size:10.65px;}.cls-18,.cls-22,.cls-6{font-family:Roboto-Regular, Roboto;}.cls-8{fill:url(#j);}.cls-9{fill:url(#i);}.cls-10{fill:url(#h);}.cls-11{fill:url(#g);}.cls-12{fill:url(#f);}.cls-13{fill:url(#e);}.cls-14{fill:url(#q);}.cls-15{fill:url(#p);}.cls-16{font-size:26.81px;}.cls-17{letter-spacing:-0.02em;}.cls-18{font-size:10.98px;letter-spacing:0.48em;}.cls-19{letter-spacing:0.45em;}.cls-20{letter-spacing:0.48em;}.cls-21{fill:url(#o);}.cls-22{letter-spacing:0.48em;}.cls-23{letter-spacing:0.45em;}.cls-24{fill:url(#n);}.cls-25{fill:url(#m);}.cls-26{font-size:28.04px;}.cls-27{letter-spacing:-0.08em;}</style>
<linearGradient id="a" x1="413.99" x2="326.99" y1="101.7" y2="195.47" gradientUnits="userSpaceOnUse">
<stop stop-color="#c33764" offset="0"/>
<stop stop-color="#1d2671" offset="1"/>
</linearGradient>
<linearGradient id="l" x1="423.47" x2="336.48" y1="110.51" y2="204.27" xlink:href="#a"/>
<linearGradient id="k" x1="423.48" x2="336.48" y1="110.5" y2="204.27" xlink:href="#a"/>
<linearGradient id="j" x1="183.13" x2="104.23" y1="315.34" y2="401.18" xlink:href="#a"/>
<linearGradient id="i" x1="187.6" x2="108.7" y1="319.45" y2="405.29" xlink:href="#a"/>
<linearGradient id="h" x1="194.66" x2="115.76" y1="325.94" y2="411.78" xlink:href="#a"/>
<linearGradient id="g" x1="203.28" x2="124.37" y1="333.86" y2="419.7" xlink:href="#a"/>
<linearGradient id="f" x1="210.72" x2="131.81" y1="340.7" y2="426.54" xlink:href="#a"/>
<linearGradient id="e" x1="637.38" x2="555.19" y1="324.17" y2="402.93" xlink:href="#a"/>
<linearGradient id="q" x1="422.44" x2="321.38" y1="329.45" y2="411.76" xlink:href="#a"/>
<linearGradient id="p" x1="418.76" x2="317.7" y1="324.94" y2="407.25" xlink:href="#a"/>
<linearGradient id="o" x1="609.54" x2="544.56" y1="91.34" y2="164.31" xlink:href="#a"/>
<linearGradient id="n" x1="186.38" x2="118.4" y1="69.4" y2="162.53" xlink:href="#a"/>
<linearGradient id="m" x1="186.35" x2="118.41" y1="69.44" y2="162.53" xlink:href="#a"/>
<style>.cls-1{fill:#180f43;}.cls-2{fill:url(#s);}.cls-3{fill:url(#r);}.cls-4{fill:url(#a);}.cls-5{fill:url(#l);}.cls-6{fill:url(#k);}.cls-7{fill:url(#j);}.cls-8{fill:url(#i);}.cls-9{fill:url(#h);}.cls-10{fill:url(#g);}.cls-11{fill:url(#f);}.cls-12{fill:url(#e);}.cls-13{fill:url(#q);}.cls-14{fill:url(#p);}.cls-15,.cls-48{font-size:9px;font-family:OpenSans;letter-spacing:0.33em;}.cls-15,.cls-18,.cls-41{fill:#fff;}.cls-16{letter-spacing:0.39em;}.cls-17{letter-spacing:0.4em;}.cls-18,.cls-41{font-size:28.17px;font-family:BebasNeueBold;}.cls-18{letter-spacing:0.1em;}.cls-19{letter-spacing:0.02em;}.cls-20,.cls-41{letter-spacing:0.1em;}.cls-21{fill-rule:evenodd;fill:url(#o);}.cls-22{fill:url(#n);}.cls-23{fill:url(#m);}.cls-24{fill:url(#al);}.cls-25{fill:url(#ak);}.cls-26{fill:url(#aj);}.cls-27{fill:url(#ai);}.cls-28{fill:url(#ah);}.cls-29{fill:url(#ag);}.cls-30{fill:url(#af);}.cls-31{fill:url(#ae);}.cls-32{fill:url(#ad);}.cls-33{fill:url(#ac);}.cls-34{fill:url(#linear-gradient-25);}.cls-35{fill:url(#linear-gradient-26);}.cls-36{fill:url(#ab);}.cls-37{fill:url(#linear-gradient-28);}.cls-38{fill:url(#linear-gradient-29);}.cls-39{fill:url(#linear-gradient-30);}.cls-40{fill:url(#aa);}.cls-42{fill:url(#c);}.cls-43{fill:url(#z);}.cls-44{fill:url(#y);}.cls-45{fill:url(#x);}.cls-46{fill:url(#w);}.cls-47{fill:url(#v);}.cls-48{fill:#6d6e71;}.cls-49,.cls-51{font-size:24.67px;fill:#231f20;font-family:Montserrat-ExtraBold, Montserrat ExtraBold;font-weight:800;}.cls-49{letter-spacing:0.06em;}.cls-50{letter-spacing:0.02em;}.cls-51{letter-spacing:0.1em;}.cls-52{fill:url(#d);}.cls-53{fill:url(#u);}.cls-54{fill:url(#t);}</style>
<radialGradient id="s" cx="132.32" cy="435.04" r="248.57" gradientTransform="matrix(.63 0 0 .68 292.3 80.69)" gradientUnits="userSpaceOnUse">
<stop stop-color="#fff" stop-opacity="0" offset="0"/>
<stop stop-color="#fff" stop-opacity=".02" offset=".13"/>
<stop stop-color="#fdfdfd" stop-opacity=".07" offset=".26"/>
<stop stop-color="#fbfbfb" stop-opacity=".16" offset=".39"/>
<stop stop-color="#f8f8f8" stop-opacity=".29" offset=".53"/>
<stop stop-color="#f4f4f5" stop-opacity=".45" offset=".66"/>
<stop stop-color="#efeff0" stop-opacity=".65" offset=".8"/>
<stop stop-color="#e9eaeb" stop-opacity=".88" offset=".94"/>
<stop stop-color="#e6e7e8" offset="1"/>
</radialGradient>
<radialGradient id="r" cx="-267.68" cy="65.49" r="269.1" gradientTransform="matrix(.63 0 0 .68 292.3 80.69)" gradientUnits="userSpaceOnUse">
<stop stop-color="#fff" stop-opacity="0" offset="0"/>
<stop stop-color="#fefefe" stop-opacity=".03" offset=".1"/>
<stop stop-color="#fdfdfd" stop-opacity=".1" offset=".23"/>
<stop stop-color="#f9fafa" stop-opacity=".22" offset=".38"/>
<stop stop-color="#f5f6f6" stop-opacity=".39" offset=".55"/>
<stop stop-color="#f0f0f1" stop-opacity=".61" offset=".73"/>
<stop stop-color="#e9eaeb" stop-opacity=".87" offset=".91"/>
<stop stop-color="#e6e7e8" offset="1"/>
</radialGradient>
<linearGradient id="b" x1="321.33" x2="430.81" y1="107.33" y2="107.33" gradientUnits="userSpaceOnUse">
<stop stop-color="#fc1b7c" offset="0"/>
<stop stop-color="#714cf4" offset=".49"/>
<stop stop-color="#0084f3" offset="1"/>
</linearGradient>
<linearGradient id="al" x1="321.33" x2="430.81" y1="129.68" y2="129.68" gradientTransform="matrix(.26458 0 0 .26458 -221.2 166.16)" xlink:href="#b"/>
<linearGradient id="ak" x1="321.34" x2="430.8" y1="114.78" y2="114.78" gradientTransform="matrix(.26458 0 0 .26458 -221.2 166.16)" xlink:href="#b"/>
<linearGradient id="aj" x1="321.34" x2="430.8" y1="122.23" y2="122.23" xlink:href="#b"/>
<linearGradient id="ai" x1="321.34" x2="430.8" y1="129.68" y2="129.68" xlink:href="#b"/>
<linearGradient id="ah" x1="321.33" x2="430.8" y1="92.42" y2="92.42" gradientTransform="matrix(.26458 0 0 .26458 -221.2 166.16)" xlink:href="#b"/>
<linearGradient id="ag" x1="321.33" x2="430.8" y1="99.88" y2="99.88" gradientTransform="matrix(.26458 0 0 .26458 -221.2 166.16)" xlink:href="#b"/>
<linearGradient id="af" x1="321.33" x2="430.8" y1="107.33" y2="107.33" gradientTransform="matrix(.26458 0 0 .26458 -221.2 166.16)" xlink:href="#b"/>
<linearGradient id="ae" x1="321.33" x2="430.8" y1="114.78" y2="114.78" gradientTransform="matrix(.26458 0 0 .26458 -221.2 166.16)" xlink:href="#b"/>
<linearGradient id="ad" x1="321.33" x2="430.8" y1="122.23" y2="122.23" gradientTransform="matrix(.26458 0 0 .26458 -221.2 166.16)" xlink:href="#b"/>
<linearGradient id="ac" x1="321.33" x2="430.8" y1="129.68" y2="129.68" gradientTransform="matrix(.26458 0 0 .26458 -221.2 166.16)" xlink:href="#b"/>
<linearGradient id="ab" x1="321.33" x2="430.81" y1="107.33" y2="107.33" gradientTransform="matrix(.26458 0 0 .26458 -221.2 166.16)" xlink:href="#b"/>
<linearGradient id="aa" x1="321.33" x2="430.8" y1="96.77" y2="96.77" gradientTransform="matrix(.26458 0 0 .26458 -221.2 166.16)" xlink:href="#b"/>
<linearGradient id="c" x1="317.16" x2="388.11" y1="350.89" y2="350.89" gradientUnits="userSpaceOnUse">
<stop stop-color="#18eff2" offset="0"/>
<stop stop-color="#109ef5" offset=".5"/>
<stop stop-color="#144ccb" offset="1"/>
</linearGradient>
<linearGradient id="z" x1="317.16" x2="388.11" y1="327.59" y2="327.59" gradientTransform="matrix(.26458 0 0 .26458 -221.2 166.16)" xlink:href="#c"/>
<linearGradient id="y" x1="444.24" x2="524.74" y1="164.82" y2="164.82" gradientTransform="matrix(.1685 -.16826 .16826 .1685 -220.82 311.44)" xlink:href="#c"/>
<linearGradient id="x" x1="442.69" x2="523.65" y1="162.77" y2="162.77" gradientTransform="matrix(.1685 -.16826 .16826 .1685 -220.82 311.44)" xlink:href="#c"/>
<linearGradient id="w" x1="445.85" x2="526.93" y1="174.97" y2="174.97" gradientTransform="matrix(.1685 -.16826 .16826 .1685 -220.82 311.44)" xlink:href="#c"/>
<linearGradient id="v" x1="447.23" x2="529.36" y1="183.39" y2="183.39" gradientTransform="matrix(.1685 -.16826 .16826 .1685 -220.82 311.44)" xlink:href="#c"/>
<linearGradient id="d" x1="52.28" x2="197.25" y1="108.99" y2="108.99" gradientUnits="userSpaceOnUse">
<stop stop-color="#f23514" offset="0"/>
<stop stop-color="#f87458" offset=".49"/>
<stop stop-color="#f6e813" offset="1"/>
</linearGradient>
<linearGradient id="u" x1="52.28" x2="197.25" y1="108.99" y2="108.99" gradientTransform="matrix(.26458 0 0 .26458 -207.05 125.02)" xlink:href="#d"/>
<linearGradient id="t" x1="52.28" x2="197.25" y1="96.57" y2="96.57" gradientTransform="matrix(.26458 0 0 .26458 -207.05 125.02)" xlink:href="#d"/>
</defs>
<metadata>
<rdf:RDF>
<cc:Work rdf:about="">
<dc:format>image/svg+xml</dc:format>
<dc:type rdf:resource="http://purl.org/dc/dcmitype/StillImage"/>
</cc:Work>
</rdf:RDF>
</metadata>
<g stroke-width=".26494">
<g fill="#3b82f6">
<path d="m6.6552 7.8421h-1.8122l-3.0309-4.5887v4.5887h-1.8122v-7.4394h1.8122l3.0309 4.6099v-4.6099h1.8122z"/>
<path d="m10.661 7.9269q-0.86899 0-1.5684-0.37091-0.68884-0.37091-1.0915-1.0597-0.39211-0.68884-0.39211-1.6108 0-0.91138 0.4027-1.6002 0.4027-0.69943 1.1021-1.0703t1.5684-0.37091q0.86899 0 1.5684 0.37091 0.69943 0.37091 1.1021 1.0703 0.4027 0.68884 0.4027 1.6002 0 0.91138-0.4133 1.6108-0.4027 0.68884-1.1127 1.0597-0.69943 0.37091-1.5684 0.37091zm0-1.5684q0.51928 0 0.87959-0.38151 0.37091-0.38151 0.37091-1.0915 0-0.71003-0.36031-1.0915-0.34972-0.38151-0.86899-0.38151-0.52987 0-0.87959 0.38151-0.34972 0.37091-0.34972 1.0915 0 0.71003 0.33912 1.0915 0.34972 0.38151 0.86899 0.38151z"/>
<path d="m18.016 6.3055v1.5366h-0.92198q-0.98556 0-1.5366-0.47689-0.55107-0.48748-0.55107-1.579v-2.3526h-0.72063v-1.5048h0.72063v-1.4413h1.8122v1.4413h1.1869v1.5048h-1.1869v2.3738q0 0.26494 0.12717 0.38151 0.12717 0.11657 0.4239 0.11657z"/>
<path d="m24.597 4.7901q0 0.25434-0.03179 0.52987h-4.1012q0.04239 0.55107 0.34972 0.8478 0.31792 0.28613 0.77362 0.28613 0.67824 0 0.94318-0.57226h1.9287q-0.14836 0.58286-0.54047 1.0491-0.38151 0.46629-0.96437 0.73122-0.58286 0.26494-1.3035 0.26494-0.86899 0-1.5472-0.37091-0.67824-0.37091-1.0597-1.0597-0.38151-0.68884-0.38151-1.6108 0-0.92198 0.37091-1.6108 0.38151-0.68884 1.0597-1.0597 0.67824-0.37091 1.5578-0.37091 0.8584 0 1.526 0.36031 0.66764 0.36031 1.0386 1.028 0.38151 0.66764 0.38151 1.5578zm-1.8546-0.47689q0-0.46629-0.31792-0.74182-0.31792-0.27553-0.79481-0.27553-0.45569 0-0.77362 0.26494-0.30733 0.26494-0.38151 0.75242z"/>
<path d="m27.363 2.7659q0.25434-0.4133 0.73122-0.66764 0.47688-0.25434 1.0915-0.25434 0.73122 0 1.3247 0.37091t0.93258 1.0597q0.34972 0.68884 0.34972 1.6002 0 0.91138-0.34972 1.6108-0.33912 0.68884-0.93258 1.0703-0.59346 0.37091-1.3247 0.37091-0.62525 0-1.0915-0.24374-0.46629-0.25434-0.73122-0.66764v0.8266h-1.8122v-7.8421h1.8122zm2.5858 2.1089q0-0.67824-0.38151-1.0597-0.37091-0.39211-0.92198-0.39211-0.54047 0-0.92198 0.39211-0.37091 0.39211-0.37091 1.0703 0 0.67824 0.37091 1.0703 0.38151 0.39211 0.92198 0.39211 0.54047 0 0.92198-0.39211 0.38151-0.4027 0.38151-1.0809z"/>
<path d="m35.438 7.9269q-0.86899 0-1.5684-0.37091-0.68884-0.37091-1.0915-1.0597-0.39211-0.68884-0.39211-1.6108 0-0.91138 0.4027-1.6002 0.4027-0.69943 1.1021-1.0703 0.69943-0.37091 1.5684-0.37091 0.86899 0 1.5684 0.37091t1.1021 1.0703q0.4027 0.68884 0.4027 1.6002 0 0.91138-0.4133 1.6108-0.4027 0.68884-1.1127 1.0597-0.69943 0.37091-1.5684 0.37091zm0-1.5684q0.51928 0 0.87959-0.38151 0.37091-0.38151 0.37091-1.0915 0-0.71003-0.36032-1.0915-0.34972-0.38151-0.86899-0.38151-0.52987 0-0.87959 0.38151-0.34972 0.37091-0.34972 1.0915 0 0.71003 0.33912 1.0915 0.34972 0.38151 0.86899 0.38151z"/>
<path d="m42.188 7.9269q-0.86899 0-1.5684-0.37091-0.68883-0.37091-1.0915-1.0597-0.39211-0.68884-0.39211-1.6108 0-0.91138 0.4027-1.6002 0.4027-0.69943 1.1021-1.0703 0.69943-0.37091 1.5684-0.37091t1.5684 0.37091q0.69943 0.37091 1.1021 1.0703 0.4027 0.68884 0.4027 1.6002 0 0.91138-0.4133 1.6108-0.4027 0.68884-1.1127 1.0597-0.69943 0.37091-1.5684 0.37091zm0-1.5684q0.51928 0 0.87959-0.38151 0.37091-0.38151 0.37091-1.0915 0-0.71003-0.36031-1.0915-0.34972-0.38151-0.86899-0.38151-0.52987 0-0.87959 0.38151-0.34972 0.37091-0.34972 1.0915 0 0.71003 0.33912 1.0915 0.34972 0.38151 0.86899 0.38151z"/>
<path d="m49.861 7.8421-1.8016-2.4798v2.4798h-1.8122v-7.8421h1.8122v4.3344l1.791-2.4056h2.2361l-2.4586 2.9673 2.4798 2.9461z"/>
</g>
<g transform="translate(.43463)" fill="#0f172a">
<path d="m56.166 3.1157q0.29673-0.51928 0.86899-0.8478 0.57226-0.32852 1.3035-0.32852 0.78421 0 1.4095 0.37091 0.62525 0.37091 0.98556 1.0491 0.36031 0.66764 0.36031 1.5578 0 0.87959-0.36031 1.5684-0.36032 0.68884-0.99616 1.0703-0.62525 0.38151-1.3989 0.38151-0.75242 0-1.3247-0.32852-0.56166-0.32852-0.8478-0.8372v1.0703h-0.96437v-7.8421h0.96437zm3.9423 1.8016q0-0.65704-0.26494-1.1445-0.26494-0.48748-0.72063-0.74182-0.44509-0.25434-0.98556-0.25434-0.52987 0-0.98556 0.26494-0.44509 0.25434-0.72063 0.75242-0.26494 0.48748-0.26494 1.1339 0 0.65704 0.26494 1.1551 0.27554 0.48748 0.72063 0.75242 0.45569 0.25434 0.98556 0.25434 0.54047 0 0.98556-0.25434 0.45569-0.26494 0.72063-0.75242 0.26494-0.49808 0.26494-1.1657z"/>
<path d="m67.665 4.7159q0 0.27553-0.03179 0.58286h-4.6417q0.05299 0.85839 0.58286 1.3459 0.54047 0.47689 1.3035 0.47689 0.62525 0 1.0386-0.28613 0.4239-0.29673 0.59346-0.78421h1.0386q-0.23314 0.8372-0.93258 1.3671-0.69943 0.51928-1.738 0.51928-0.8266 0-1.4836-0.37091-0.64644-0.37091-1.0174-1.0491-0.37091-0.68884-0.37091-1.5896 0-0.90078 0.36031-1.579 0.36031-0.67824 1.0068-1.0386 0.65704-0.37091 1.5048-0.37091 0.8266 0 1.4624 0.36031 0.63585 0.36031 0.97497 0.99616 0.34972 0.62525 0.34972 1.4201zm-0.99616-0.20135q0-0.55107-0.24374-0.94317-0.24374-0.4027-0.66764-0.60406-0.4133-0.21195-0.92198-0.21195-0.73122 0-1.2505 0.46629-0.50868 0.46629-0.58286 1.2929z"/>
<path d="m68.576 4.9172q0-0.89019 0.36031-1.5578 0.36031-0.67824 0.98556-1.0491 0.63585-0.37091 1.4095-0.37091 0.76302 0 1.3247 0.32852 0.56166 0.32852 0.8372 0.8266v-1.0597h0.97497v5.8074h-0.97497v-1.0809q-0.28613 0.50868-0.8584 0.8478-0.56166 0.32852-1.3141 0.32852-0.77362 0-1.3989-0.38151-0.62525-0.38151-0.98556-1.0703-0.36031-0.68884-0.36031-1.5684zm4.9172 0.010597q0-0.65704-0.26494-1.1445-0.26494-0.48748-0.72063-0.74182-0.44509-0.26494-0.98556-0.26494-0.54047 0-0.98556 0.25434-0.44509 0.25434-0.71003 0.74182-0.26494 0.48748-0.26494 1.1445 0 0.66764 0.26494 1.1657 0.26494 0.48748 0.71003 0.75242 0.44509 0.25434 0.98556 0.25434 0.54047 0 0.98556-0.25434 0.45569-0.26494 0.72063-0.75242 0.26494-0.49808 0.26494-1.1551z"/>
<path d="m77.065 2.9779q0.25434-0.49808 0.72063-0.77361 0.47689-0.27553 1.1551-0.27553v0.99616h-0.25434q-1.6214 0-1.6214 1.7592v3.158h-0.96437v-5.8074h0.96437z"/>
</g>
</g>
</svg>
