<?xml version="1.0" encoding="UTF-8"?>
<svg width="235" height="30" version="1.1" viewBox="0 0 62.177 7.9375" xmlns="http://www.w3.org/2000/svg" xmlns:cc="http://creativecommons.org/ns#" xmlns:dc="http://purl.org/dc/elements/1.1/" xmlns:rdf="http://www.w3.org/1999/02/22-rdf-syntax-ns#" xmlns:xlink="http://www.w3.org/1999/xlink">
<defs>
<style>.cls-1{fill:#fff;}.cls-2{fill:url(#a);}.cls-3{fill:url(#l);}.cls-4{fill:url(#k);}.cls-5{font-size:22.37px;}.cls-16,.cls-18,.cls-22,.cls-26,.cls-5,.cls-6,.cls-7{fill:#140077;}.cls-16,.cls-26,.cls-5{font-family:Montserrat-ExtraBold, Montserrat ExtraBold;font-weight:800;}.cls-22,.cls-6{font-size:10.65px;}.cls-18,.cls-22,.cls-6{font-family:Roboto-Regular, Roboto;}.cls-8{fill:url(#j);}.cls-9{fill:url(#i);}.cls-10{fill:url(#h);}.cls-11{fill:url(#g);}.cls-12{fill:url(#f);}.cls-13{fill:url(#e);}.cls-14{fill:url(#q);}.cls-15{fill:url(#p);}.cls-16{font-size:26.81px;}.cls-17{letter-spacing:-0.02em;}.cls-18{font-size:10.98px;letter-spacing:0.48em;}.cls-19{letter-spacing:0.45em;}.cls-20{letter-spacing:0.48em;}.cls-21{fill:url(#o);}.cls-22{letter-spacing:0.48em;}.cls-23{letter-spacing:0.45em;}.cls-24{fill:url(#n);}.cls-25{fill:url(#m);}.cls-26{font-size:28.04px;}.cls-27{letter-spacing:-0.08em;}</style>
<linearGradient id="a" x1="413.99" x2="326.99" y1="101.7" y2="195.47" gradientUnits="userSpaceOnUse">
<stop stop-color="#c33764" offset="0"/>
<stop stop-color="#1d2671" offset="1"/>
</linearGradient>
<linearGradient id="l" x1="423.47" x2="336.48" y1="110.51" y2="204.27" xlink:href="#a"/>
<linearGradient id="k" x1="423.48" x2="336.48" y1="110.5" y2="204.27" xlink:href="#a"/>
<linearGradient id="j" x1="183.13" x2="104.23" y1="315.34" y2="401.18" xlink:href="#a"/>
<linearGradient id="i" x1="187.6" x2="108.7" y1="319.45" y2="405.29" xlink:href="#a"/>
<linearGradient id="h" x1="194.66" x2="115.76" y1="325.94" y2="411.78" xlink:href="#a"/>
<linearGradient id="g" x1="203.28" x2="124.37" y1="333.86" y2="419.7" xlink:href="#a"/>
<linearGradient id="f" x1="210.72" x2="131.81" y1="340.7" y2="426.54" xlink:href="#a"/>
<linearGradient id="e" x1="637.38" x2="555.19" y1="324.17" y2="402.93" xlink:href="#a"/>
<linearGradient id="q" x1="422.44" x2="321.38" y1="329.45" y2="411.76" xlink:href="#a"/>
<linearGradient id="p" x1="418.76" x2="317.7" y1="324.94" y2="407.25" xlink:href="#a"/>
<linearGradient id="o" x1="609.54" x2="544.56" y1="91.34" y2="164.31" xlink:href="#a"/>
<linearGradient id="n" x1="186.38" x2="118.4" y1="69.4" y2="162.53" xlink:href="#a"/>
<linearGradient id="m" x1="186.35" x2="118.41" y1="69.44" y2="162.53" xlink:href="#a"/>
<style>.cls-1{fill:#180f43;}.cls-2{fill:url(#s);}.cls-3{fill:url(#r);}.cls-4{fill:url(#a);}.cls-5{fill:url(#l);}.cls-6{fill:url(#k);}.cls-7{fill:url(#j);}.cls-8{fill:url(#i);}.cls-9{fill:url(#h);}.cls-10{fill:url(#g);}.cls-11{fill:url(#f);}.cls-12{fill:url(#e);}.cls-13{fill:url(#q);}.cls-14{fill:url(#p);}.cls-15,.cls-48{font-size:9px;font-family:OpenSans;letter-spacing:0.33em;}.cls-15,.cls-18,.cls-41{fill:#fff;}.cls-16{letter-spacing:0.39em;}.cls-17{letter-spacing:0.4em;}.cls-18,.cls-41{font-size:28.17px;font-family:BebasNeueBold;}.cls-18{letter-spacing:0.1em;}.cls-19{letter-spacing:0.02em;}.cls-20,.cls-41{letter-spacing:0.1em;}.cls-21{fill-rule:evenodd;fill:url(#o);}.cls-22{fill:url(#n);}.cls-23{fill:url(#m);}.cls-24{fill:url(#al);}.cls-25{fill:url(#ak);}.cls-26{fill:url(#aj);}.cls-27{fill:url(#ai);}.cls-28{fill:url(#ah);}.cls-29{fill:url(#ag);}.cls-30{fill:url(#af);}.cls-31{fill:url(#ae);}.cls-32{fill:url(#ad);}.cls-33{fill:url(#ac);}.cls-34{fill:url(#linear-gradient-25);}.cls-35{fill:url(#linear-gradient-26);}.cls-36{fill:url(#ab);}.cls-37{fill:url(#linear-gradient-28);}.cls-38{fill:url(#linear-gradient-29);}.cls-39{fill:url(#linear-gradient-30);}.cls-40{fill:url(#aa);}.cls-42{fill:url(#c);}.cls-43{fill:url(#z);}.cls-44{fill:url(#y);}.cls-45{fill:url(#x);}.cls-46{fill:url(#w);}.cls-47{fill:url(#v);}.cls-48{fill:#6d6e71;}.cls-49,.cls-51{font-size:24.67px;fill:#231f20;font-family:Montserrat-ExtraBold, Montserrat ExtraBold;font-weight:800;}.cls-49{letter-spacing:0.06em;}.cls-50{letter-spacing:0.02em;}.cls-51{letter-spacing:0.1em;}.cls-52{fill:url(#d);}.cls-53{fill:url(#u);}.cls-54{fill:url(#t);}</style>
<radialGradient id="s" cx="132.32" cy="435.04" r="248.57" gradientTransform="matrix(.63 0 0 .68 292.3 80.69)" gradientUnits="userSpaceOnUse">
<stop stop-color="#fff" stop-opacity="0" offset="0"/>
<stop stop-color="#fff" stop-opacity=".02" offset=".13"/>
<stop stop-color="#fdfdfd" stop-opacity=".07" offset=".26"/>
<stop stop-color="#fbfbfb" stop-opacity=".16" offset=".39"/>
<stop stop-color="#f8f8f8" stop-opacity=".29" offset=".53"/>
<stop stop-color="#f4f4f5" stop-opacity=".45" offset=".66"/>
<stop stop-color="#efeff0" stop-opacity=".65" offset=".8"/>
<stop stop-color="#e9eaeb" stop-opacity=".88" offset=".94"/>
<stop stop-color="#e6e7e8" offset="1"/>
</radialGradient>
<radialGradient id="r" cx="-267.68" cy="65.49" r="269.1" gradientTransform="matrix(.63 0 0 .68 292.3 80.69)" gradientUnits="userSpaceOnUse">
<stop stop-color="#fff" stop-opacity="0" offset="0"/>
<stop stop-color="#fefefe" stop-opacity=".03" offset=".1"/>
<stop stop-color="#fdfdfd" stop-opacity=".1" offset=".23"/>
<stop stop-color="#f9fafa" stop-opacity=".22" offset=".38"/>
<stop stop-color="#f5f6f6" stop-opacity=".39" offset=".55"/>
<stop stop-color="#f0f0f1" stop-opacity=".61" offset=".73"/>
<stop stop-color="#e9eaeb" stop-opacity=".87" offset=".91"/>
<stop stop-color="#e6e7e8" offset="1"/>
</radialGradient>
<linearGradient id="b" x1="321.33" x2="430.81" y1="107.33" y2="107.33" gradientUnits="userSpaceOnUse">
<stop stop-color="#fc1b7c" offset="0"/>
<stop stop-color="#714cf4" offset=".49"/>
<stop stop-color="#0084f3" offset="1"/>
</linearGradient>
<linearGradient id="al" x1="321.33" x2="430.81" y1="129.68" y2="129.68" gradientTransform="matrix(.26458 0 0 .26458 -221.2 166.16)" xlink:href="#b"/>
<linearGradient id="ak" x1="321.34" x2="430.8" y1="114.78" y2="114.78" gradientTransform="matrix(.26458 0 0 .26458 -221.2 166.16)" xlink:href="#b"/>
<linearGradient id="aj" x1="321.34" x2="430.8" y1="122.23" y2="122.23" xlink:href="#b"/>
<linearGradient id="ai" x1="321.34" x2="430.8" y1="129.68" y2="129.68" xlink:href="#b"/>
<linearGradient id="ah" x1="321.33" x2="430.8" y1="92.42" y2="92.42" gradientTransform="matrix(.26458 0 0 .26458 -221.2 166.16)" xlink:href="#b"/>
<linearGradient id="ag" x1="321.33" x2="430.8" y1="99.88" y2="99.88" gradientTransform="matrix(.26458 0 0 .26458 -221.2 166.16)" xlink:href="#b"/>
<linearGradient id="af" x1="321.33" x2="430.8" y1="107.33" y2="107.33" gradientTransform="matrix(.26458 0 0 .26458 -221.2 166.16)" xlink:href="#b"/>
<linearGradient id="ae" x1="321.33" x2="430.8" y1="114.78" y2="114.78" gradientTransform="matrix(.26458 0 0 .26458 -221.2 166.16)" xlink:href="#b"/>
<linearGradient id="ad" x1="321.33" x2="430.8" y1="122.23" y2="122.23" gradientTransform="matrix(.26458 0 0 .26458 -221.2 166.16)" xlink:href="#b"/>
<linearGradient id="ac" x1="321.33" x2="430.8" y1="129.68" y2="129.68" gradientTransform="matrix(.26458 0 0 .26458 -221.2 166.16)" xlink:href="#b"/>
<linearGradient id="ab" x1="321.33" x2="430.81" y1="107.33" y2="107.33" gradientTransform="matrix(.26458 0 0 .26458 -221.2 166.16)" xlink:href="#b"/>
<linearGradient id="aa" x1="321.33" x2="430.8" y1="96.77" y2="96.77" gradientTransform="matrix(.26458 0 0 .26458 -221.2 166.16)" xlink:href="#b"/>
<linearGradient id="c" x1="317.16" x2="388.11" y1="350.89" y2="350.89" gradientUnits="userSpaceOnUse">
<stop stop-color="#18eff2" offset="0"/>
<stop stop-color="#109ef5" offset=".5"/>
<stop stop-color="#144ccb" offset="1"/>
</linearGradient>
<linearGradient id="z" x1="317.16" x2="388.11" y1="327.59" y2="327.59" gradientTransform="matrix(.26458 0 0 .26458 -221.2 166.16)" xlink:href="#c"/>
<linearGradient id="y" x1="444.24" x2="524.74" y1="164.82" y2="164.82" gradientTransform="matrix(.1685 -.16826 .16826 .1685 -220.82 311.44)" xlink:href="#c"/>
<linearGradient id="x" x1="442.69" x2="523.65" y1="162.77" y2="162.77" gradientTransform="matrix(.1685 -.16826 .16826 .1685 -220.82 311.44)" xlink:href="#c"/>
<linearGradient id="w" x1="445.85" x2="526.93" y1="174.97" y2="174.97" gradientTransform="matrix(.1685 -.16826 .16826 .1685 -220.82 311.44)" xlink:href="#c"/>
<linearGradient id="v" x1="447.23" x2="529.36" y1="183.39" y2="183.39" gradientTransform="matrix(.1685 -.16826 .16826 .1685 -220.82 311.44)" xlink:href="#c"/>
<linearGradient id="d" x1="52.28" x2="197.25" y1="108.99" y2="108.99" gradientUnits="userSpaceOnUse">
<stop stop-color="#f23514" offset="0"/>
<stop stop-color="#f87458" offset=".49"/>
<stop stop-color="#f6e813" offset="1"/>
</linearGradient>
<linearGradient id="u" x1="52.28" x2="197.25" y1="108.99" y2="108.99" gradientTransform="matrix(.26458 0 0 .26458 -207.05 125.02)" xlink:href="#d"/>
<linearGradient id="t" x1="52.28" x2="197.25" y1="96.57" y2="96.57" gradientTransform="matrix(.26458 0 0 .26458 -207.05 125.02)" xlink:href="#d"/>
</defs>
<metadata>
<rdf:RDF>
<cc:Work rdf:about="">
<dc:format>image/svg+xml</dc:format>
<dc:type rdf:resource="http://purl.org/dc/dcmitype/StillImage"/>
</cc:Work>
</rdf:RDF>
</metadata>
<path d="m26.48 2.1303q-0.19173 0.029822-0.37493 0.14486-0.17895 0.11504-0.29824 0.35789-0.36641 0.77543-0.75413 1.6531-0.38771 0.87342-0.86064 1.8917-0.26416 0.57092-0.51127 0.91177-0.24712 0.34085-0.4644 0.52405-0.20451 0.17042-0.40476 0.24712-0.20025 0.076693-0.40476 0.076693-0.40476 0-0.65613-0.22581-0.24711-0.22581-0.24711-0.50701 0-0.1193 0.02557-0.22155 0.02982-0.10225 0.1193-0.21303 0.06817-0.093733 0.20877-0.1619 0.14486-0.063913 0.3238-0.063913 0.23859 0 0.45588 0.16616 0.21729 0.16616 0.45162 0.46014 0.1406-0.1406 0.34511-0.4218 0.20877-0.27694 0.30676-0.57092-0.50701-1.0651-0.89899-1.8448-0.39198-0.78395-0.87768-1.7468-0.10652-0.20451-0.28546-0.31528-0.17894-0.11504-0.37919-0.1406v-0.31102h2.6075v0.31102q-0.14486 0.00429-0.33659 0.063905-0.18747 0.059651-0.18747 0.15338 0 0.034084 0.01278 0.076693 0.01278 0.038347 0.04686 0.11504 0.14486 0.29824 0.40902 0.83082 0.26842 0.52831 0.62205 1.2398 0.26416-0.60501 0.44736-1.0396 0.18747-0.43884 0.36215-0.86064 0.04261-0.10652 0.04686-0.16616 0.0085-0.063906 0.0085-0.085212 0-0.076693-0.07669-0.13208-0.07243-0.059651-0.17468-0.10225-0.10652-0.042609-0.20451-0.063906-0.098-0.021304-0.1619-0.029822v-0.31102h1.7596zm-7.0172 4.0518q-0.59222 0-1.0481-0.17042-0.45162-0.17468-0.7456-0.47293-0.29398-0.3025-0.43884-0.71578-0.14486-0.41328-0.14486-0.89899 0-0.4431 0.17469-0.8436 0.17894-0.4005 0.48145-0.703 0.31102-0.31102 0.77117-0.49423 0.4644-0.18747 1.0225-0.18747 0.78395 0 1.2398 0.29824 0.45588 0.29398 0.45588 0.79673 0 0.30676-0.1619 0.49423-0.1619 0.18747-0.55814 0.18747-0.31954 0-0.53684-0.15338-0.21303-0.15338-0.21303-0.4005 0-0.20877 0.06817-0.41328 0.06817-0.20451 0.08096-0.31102-0.04686-0.076693-0.1193-0.11504-0.07243-0.042609-0.22581-0.042609-0.19173 0-0.34937 0.089472t-0.29398 0.31528q-0.13208 0.21303-0.21303 0.57092-0.07669 0.35789-0.07669 0.86064 0 0.75839 0.35363 1.2228 0.35789 0.46441 0.85212 0.46441 0.47293 0 0.74987-0.20877 0.2812-0.21303 0.49849-0.60075l0.31954 0.22155q-0.13208 0.2599-0.31529 0.47719-0.18321 0.21303-0.43884 0.37919-0.26842 0.17468-0.54536 0.26416-0.27694 0.089472-0.64335 0.089472zm-2.829-0.13634h-2.5649v-0.31102q0.08095-0.00852 0.19599-0.021304 0.11504-0.012779 0.17468-0.042609 0.08948-0.046863 0.12782-0.13634 0.03835-0.089473 0.03835-0.26416v-1.994q0-0.43458-0.1619-0.65187-0.15764-0.22155-0.46867-0.22155-0.17042 0-0.31954 0.051126-0.14486 0.051126-0.28546 0.14912-0.12356 0.085212-0.20025 0.17468-0.07243 0.089472-0.12356 0.15764v2.2879q0 0.14912 0.04261 0.25138 0.04261 0.097994 0.1406 0.14912 0.06817 0.038347 0.17042 0.068168 0.10226 0.029822 0.20025 0.042609v0.31102h-2.5904v-0.31102q0.10652-0.00852 0.21303-0.021304 0.11078-0.017041 0.18747-0.042609 0.13634-0.046863 0.18747-0.14486 0.05113-0.097994 0.05113-0.25564v-2.4797q0-0.13208-0.06817-0.2599t-0.17895-0.20877q-0.07669-0.051126-0.19599-0.085212-0.11504-0.034084-0.25564-0.046863v-0.31102l2.0323-0.11078 0.06391 0.063906v0.61779h0.01704q0.1193-0.10652 0.28972-0.25564 0.17042-0.14912 0.31528-0.24285 0.15764-0.10225 0.41328-0.17468 0.25564-0.072431 0.54536-0.072431 0.69448 0 1.0396 0.39624 0.34937 0.39198 0.34937 1.0438v2.0877q0 0.15764 0.04687 0.25138 0.04686 0.093733 0.17468 0.14912 0.06817 0.029821 0.16616 0.059651 0.10226 0.029822 0.23007 0.042609zm-5.9521-0.089473q-0.18747 0.080956-0.4431 0.14912-0.25564 0.068168-0.5411 0.068168-0.52405 0-0.77117-0.15338-0.24711-0.15764-0.33659-0.44736h-0.025567q-0.14486 0.14486-0.2812 0.24712-0.13208 0.10225-0.28546 0.17468-0.20025 0.093733-0.38771 0.13634-0.18321 0.046863-0.51553 0.046863-0.49423 0-0.8436-0.28972-0.34937-0.29398-0.34937-0.77543 0-0.27694 0.076693-0.46867 0.076693-0.19599 0.21729-0.34511 0.12782-0.13634 0.29398-0.22581 0.17042-0.089473 0.37067-0.16616 0.38345-0.1406 0.92029-0.28972 0.53684-0.15338 0.78395-0.27268v-0.40902q0-0.10651-0.017042-0.2812-0.017042-0.17468-0.07243-0.29398-0.059651-0.13634-0.18747-0.23007-0.12782-0.093733-0.33659-0.093733-0.18747 0-0.31528 0.055388-0.12356 0.051126-0.20025 0.10652 0.01278 0.085211 0.072431 0.2599 0.059651 0.17468 0.059651 0.33659 0 0.072431-0.038347 0.18321-0.038347 0.10651-0.11078 0.17042-0.097994 0.085211-0.22155 0.13208-0.1193 0.046863-0.37067 0.046863-0.35789 0-0.5411-0.17042-0.18321-0.17468-0.18321-0.45162 0-0.23859 0.18747-0.42606 0.19173-0.19173 0.46441-0.31528 0.26842-0.12782 0.61779-0.19599 0.34937-0.072431 0.64761-0.072431 0.41328 0 0.75839 0.051126 0.34511 0.046863 0.62205 0.20025 0.26416 0.14912 0.41754 0.43458 0.15764 0.2812 0.15764 0.73708 0 0.48145-0.021304 1.1418-0.017043 0.66039-0.017043 0.86916 0 0.19173 0.055388 0.3025 0.059651 0.11078 0.17895 0.16616 0.07243 0.034084 0.22581 0.042609 0.15764 0.00429 0.28546 0.00429zm-2.1175-2.2198q-0.23859 0.080956-0.47293 0.18747-0.23433 0.10225-0.38345 0.21729-0.15764 0.1193-0.24712 0.30676-0.089472 0.18321-0.089472 0.43458 0 0.33233 0.14912 0.48145 0.15338 0.14912 0.37493 0.14912 0.23433 0 0.38345-0.093733 0.15338-0.097994 0.26842-0.23859zm-3.1315-2.1218h-0.32807q-0.12356-0.35363-0.43884-0.74987-0.31102-0.4005-0.59222-0.43884-0.12782-0.017042-0.34085-0.029821-0.21303-0.012779-0.39198-0.012779h-0.94159v2.3732h0.60074q0.25564 0 0.4431-0.055388 0.18747-0.059652 0.33233-0.20877 0.10652-0.10652 0.20451-0.35363 0.10225-0.25138 0.12356-0.43032h0.32381v2.5436h-0.32381q-0.017042-0.19173-0.13208-0.4644-0.11504-0.27694-0.19599-0.36641-0.12356-0.13634-0.31528-0.20025-0.19173-0.068168-0.46014-0.068168h-0.60074v2.0025q0 0.15338 0.055388 0.26416 0.059651 0.10651 0.22155 0.17468 0.093733 0.038347 0.25564 0.072431 0.16616 0.029821 0.32807 0.046863v0.33233h-3.2594v-0.33233q0.12356-0.01278 0.32807-0.034084 0.20451-0.025567 0.28546-0.059651 0.15338-0.059651 0.21303-0.16616 0.059651-0.10652 0.059651-0.27268v-4.2649q0-0.14486-0.055388-0.25138-0.051126-0.11078-0.21729-0.18321-0.1193-0.051126-0.31528-0.093733-0.19599-0.042609-0.29824-0.055388v-0.33233h5.4323z" fill="#d40000" stroke-width=".21814"/>
<path d="m60.907 5.8149-1.3118-1.6468v1.6468h-0.97689v-5.1635h0.97689v2.9376l1.2979-1.6398h1.27l-1.7026 1.9398 1.7165 1.9259zm-5.024 0.062795q-0.55822 0-1.0048-0.24422-0.44658-0.2512-0.70476-0.70476-0.2512-0.45355-0.2512-1.0467t0.25818-1.0467q0.26516-0.45355 0.71871-0.69778 0.45356-0.2512 1.0118-0.2512 0.55822 0 1.0118 0.2512 0.45356 0.24422 0.71173 0.69778 0.26516 0.45356 0.26516 1.0467t-0.27213 1.0467q-0.26516 0.45355-0.72569 0.70476-0.45356 0.24422-1.0188 0.24422zm0-0.85129q0.26516 0 0.49542-0.1256 0.23724-0.13258 0.3768-0.39075 0.13956-0.25818 0.13956-0.628 0-0.55124-0.29306-0.84431-0.28609-0.30004-0.70476-0.30004-0.41867 0-0.70476 0.30004-0.27911 0.29307-0.27911 0.84431t0.27213 0.85129q0.27911 0.29307 0.69778 0.29307zm-4.4518 0.85129q-0.55822 0-1.0048-0.24422-0.44658-0.2512-0.70475-0.70476-0.2512-0.45355-0.2512-1.0467t0.25818-1.0467q0.26516-0.45355 0.71871-0.69778 0.45356-0.2512 1.0118-0.2512t1.0118 0.2512q0.45356 0.24422 0.71173 0.69778 0.26516 0.45356 0.26516 1.0467t-0.27213 1.0467q-0.26516 0.45355-0.72569 0.70476-0.45355 0.24422-1.0188 0.24422zm0-0.85129q0.26516 0 0.49542-0.1256 0.23724-0.13258 0.3768-0.39075 0.13956-0.25818 0.13956-0.628 0-0.55124-0.29307-0.84431-0.28609-0.30004-0.70475-0.30004-0.41867 0-0.70475 0.30004-0.27911 0.29307-0.27911 0.84431t0.27213 0.85129q0.27911 0.29307 0.69778 0.29307zm-5.4706-2.512q0.1884-0.27911 0.51635-0.45355 0.33493-0.17444 0.76058-0.17444 0.49542 0 0.89315 0.24422 0.40471 0.24422 0.63498 0.69778 0.23724 0.44658 0.23724 1.0397t-0.23724 1.0536q-0.23027 0.45356-0.63498 0.70476-0.39773 0.2512-0.89315 0.2512-0.43262 0-0.76058-0.16747-0.32098-0.17444-0.51635-0.44658v0.55124h-0.97689v-5.1635h0.97689zm2.0445 1.3537q0-0.34889-0.14653-0.60009-0.13956-0.25818-0.3768-0.39076-0.23027-0.13258-0.5024-0.13258-0.26516 0-0.5024 0.13955-0.23027 0.13258-0.3768 0.39076-0.13956 0.25818-0.13956 0.60707t0.13956 0.60707q0.14653 0.25818 0.3768 0.39773 0.23724 0.13258 0.5024 0.13258 0.27213 0 0.5024-0.13955 0.23724-0.13956 0.3768-0.39773 0.14653-0.25818 0.14653-0.61404zm-3.7331-0.069778q0 0.20933-0.02791 0.3768h-2.826q0.03489 0.41867 0.29306 0.65591 0.25818 0.23724 0.63498 0.23724 0.54427 0 0.77453-0.46751h1.0536q-0.16747 0.55822-0.64196 0.92107-0.47449 0.35587-1.1653 0.35587-0.55822 0-1.0048-0.24422-0.4396-0.2512-0.6908-0.70476-0.24422-0.45355-0.24422-1.0467 0-0.60009 0.24422-1.0536 0.24422-0.45355 0.68382-0.69778 0.4396-0.24422 1.0118-0.24422 0.55124 0 0.98386 0.23724 0.4396 0.23724 0.67684 0.67684 0.24422 0.43262 0.24422 0.99782zm-1.0118-0.27911q-7e-3 -0.3768-0.27213-0.60009-0.26516-0.23027-0.64893-0.23027-0.36284 0-0.61404 0.22329-0.24422 0.21631-0.30004 0.60707zm-4.1518-0.76756v1.87q0 0.19538 0.09071 0.28609 0.09769 0.083734 0.32098 0.083734h0.45356v0.82338h-0.61404q-1.2351 0-1.2351-1.2002v-1.8631h-0.46053v-0.80244h0.46053v-0.95595h0.98386v0.95595h0.86524v0.80244zm-3.8727 3.126q-0.55822 0-1.0048-0.24422-0.44658-0.2512-0.70475-0.70476-0.2512-0.45355-0.2512-1.0467 0-0.59311 0.25818-1.0467 0.26516-0.45355 0.71871-0.69778 0.45356-0.2512 1.0118-0.2512 0.55822 0 1.0118 0.2512 0.45356 0.24422 0.71173 0.69778 0.26516 0.45356 0.26516 1.0467 0 0.59311-0.27213 1.0467-0.26516 0.45355-0.72569 0.70476-0.45356 0.24422-1.0188 0.24422zm0-0.85129q0.26516 0 0.49542-0.1256 0.23724-0.13258 0.3768-0.39075 0.13956-0.25818 0.13956-0.628 0-0.55124-0.29307-0.84431-0.28609-0.30004-0.70475-0.30004-0.41867 0-0.70475 0.30004-0.27911 0.29307-0.27911 0.84431 0 0.55124 0.27213 0.85129 0.27911 0.29307 0.69778 0.29307zm-4.1867-3.133q0.6908 0 1.1164 0.4396 0.42564 0.43262 0.42564 1.2141v2.2678h-0.97689v-2.1352q0-0.46053-0.23026-0.70475-0.23027-0.2512-0.628-0.2512-0.40471 0-0.64196 0.2512-0.23027 0.24422-0.23027 0.70475v2.1352h-0.97689v-3.8657h0.97689v0.48146q0.19538-0.2512 0.49542-0.39075 0.30702-0.14653 0.66986-0.14653z" fill="#6b7280" stroke-width=".17444"/>
</svg>
